<svg version="1.2" xmlns="http://www.w3.org/2000/svg" viewBox="0 0 1144 776" width="1144" height="776"><defs><linearGradient id="P" gradientUnits="userSpaceOnUse"/><linearGradient id="g1" x2="1" href="#P" gradientTransform="matrix(0,-100.038,532.554,0,591.07,524.54)"><stop stop-color="#fff" stop-opacity="0"/><stop offset="1" stop-color="#fff" stop-opacity="1"/></linearGradient><linearGradient id="g2" x2="1" href="#P" gradientTransform="matrix(0,36.208,-147.811,0,121.714,346.815)"><stop stop-color="#fff" stop-opacity="1"/><stop offset="1" stop-color="#fff" stop-opacity="0"/></linearGradient><linearGradient id="g3" x2="1" href="#P" gradientTransform="matrix(0,-30.555,171.384,0,276.903,197.183)"><stop stop-color="#fff" stop-opacity="0"/><stop offset="1" stop-color="#fff" stop-opacity="1"/></linearGradient><linearGradient id="g4" x2="1" href="#P" gradientTransform="matrix(0,-15.277,85.693,0,371.716,396.166)"><stop stop-color="#fff" stop-opacity="0"/><stop offset="1" stop-color="#fff" stop-opacity="1"/></linearGradient><linearGradient id="g5" x2="1" href="#P" gradientTransform="matrix(0,-7.639,42.846,0,830.086,154.577)"><stop stop-color="#fff" stop-opacity="0"/><stop offset="1" stop-color="#fff" stop-opacity="1"/></linearGradient><linearGradient id="g6" x2="1" href="#P" gradientTransform="matrix(0,87.376,-356.695,0,851.123,268.371)"><stop stop-color="#fff" stop-opacity="1"/><stop offset="1" stop-color="#fff" stop-opacity="0"/></linearGradient></defs><style>.a{fill:#fdd7c0}.b{opacity:.5;fill:url(#g1)}.c{opacity:.2;fill:url(#g2)}.d{opacity:.5;fill:url(#g3)}.e{opacity:.5;fill:url(#g4)}.f{opacity:.5;fill:url(#g5)}.g{opacity:.2;fill:url(#g6)}</style><path class="a" d="m1143.9 775.8h-1143.5v-775.7h1143.5z"/><path class="b" d="m848 503.8c0 0-100.8-1-113.5 8-12.8 8.9-17 18.2-27.5 8.9-10.5-9.3-20.9-21.7-43.5-16.9-22.6 4.8-16.2 7.3-33.5 8-17.4 0.6-33.6-18.7-43-21.3q-0.3-0.1-0.7-0.2c-1.4-0.3-3-0.4-4.6-0.4-1.7 0-3.2 0.1-4.7 0.4q-0.3 0.1-0.7 0.2c-9.3 2.6-25.5 21.9-42.9 21.3-17.4-0.7-10.9-3.2-33.5-8-22.6-4.8-33 7.6-43.5 16.9-10.5 9.3-14.7 0-27.5-8.9-12.8-9-113.5-8-113.5-8 0 0 73.5-8.1 77.1-9.1 3.7-1 23.5 2.6 31.6 4 8.1 1.4 17.4-14.6 28.6-18.4 11.2-3.7 16.1 6.6 29.1 0 13-6.6 3-15 12-25.8 9.1-10.7 16-8.7 30.6-2.4 14.6 6.3 17.9-1 22.6-4.9 4.5-3.8 3.9-12.1 19.8-19.1q1.3-0.6 2.8-1.2c4.4-1.7 8.4-2.4 12.1-2.4 3.6 0 7.7 0.7 12 2.4q1.5 0.6 2.8 1.2c16 7 15.3 15.3 19.8 19.1 4.8 3.9 8.1 11.2 22.7 4.9 14.6-6.3 21.5-8.3 30.5 2.4 9.1 10.8-0.9 19.2 12.1 25.8 13 6.6 17.8-3.7 29.1 0 11.2 3.8 20.4 19.8 28.5 18.4 8.1-1.4 28-5 31.6-4 3.6 1 77.2 9.1 77.2 9.1z"/><path class="c" d="m0.4 342.9c0 0 0.4-1.1 0.4-1.1 4-13 29.3-4.2 36.1 1.7 5 4.3 10.4 10.6 16.7 8.6 2.2-0.7 3.9-2.3 5.8-3.6 7.3-5 17.8-4.7 24.8 0.7 4.3 3.4 7.9 8.7 13.4 9 3.1 0.1 6-1.4 9-1.5 7.3-0.3 12.2 6.9 18.3 10.9 6.7 4.3 12.7 2.9 20 1.8 6.5-1.1 13.3-0.1 19.8 0.5 9.2 1 19 4.4 28.2 4.4 1.7 0 36.4 5.8 36.4 5.8 0 0-27.3 4.6-41.6 3.1-14.3-1.4-7.2-1.5-20.3 0-13.1 1.6-27.7 5.5-33.6 4.9-5.8-0.6 3.1 0.1-18 0.1-21-0.1-22.5 3.1-43.3 2.9-20.8-0.2-22.8-5.9-35.6-7.9-12.7-2-36.5 0.8-36.5 0.8q0-11.6 0-23.1z"/><path class="d" d="m203.1 187.4c0 0-0.1-24.1 17.7-24.1 17.9 0 17.2 19.8 17.2 19.8 0 0 2.7-11.3 14.1-10 13.1 1.5 12.1 14.3 12.1 14.3 0 0 2.7-10.1 15.8-7.2 8.1 1.8 9.5 10.7 9.5 10.7 0 0 4.5-12.9 14.3-13.3 13.7-0.6 19.6 14.2 19.6 14.2l45.5 5.4-190-3.6z"/><path class="e" d="m408.6 391.3c0 0 0.1-12.1-8.9-12.1-8.9 0-8.5 9.9-8.5 9.9 0 0-1.4-5.6-7.1-5-6.5 0.8-6 7.2-6 7.2 0 0-1.4-5.1-8-3.6-4 0.9-4.7 5.3-4.7 5.3 0 0-2.2-6.4-7.1-6.6-6.9-0.3-9.8 7.1-9.8 7.1l-22.8 2.7 95-1.8z"/><path class="f" d="m848.5 152.1c0 0 0.1-6-4.4-6-4.5 0-4.3 5-4.3 5 0 0-0.7-2.9-3.5-2.5-3.3 0.3-3 3.5-3 3.5 0 0-0.7-2.5-4-1.8-2 0.5-2.4 2.7-2.4 2.7 0 0-1.1-3.2-3.5-3.3-3.5-0.2-4.9 3.5-4.9 3.5l-11.4 1.4 47.5-0.9z"/><path class="g" d="m1143.9 258.9c0 0-1-2.7-1-2.7-9.6-31.4-70.6-10-87.1 4.2-12.1 10.3-25.1 25.5-40.3 20.8-5.3-1.7-9.5-5.7-14.1-8.8-17.6-12-42.9-11.3-59.7 1.7-10.5 8.2-19.2 21.1-32.5 21.7-7.3 0.3-14.4-3.4-21.7-3.7-17.5-0.7-29.3 16.9-44 26.3-16.3 10.6-30.8 7.2-48.4 4.4-15.6-2.5-32-0.3-47.8 1.3-22.1 2.3-45.8 10.7-67.9 10.7-4.1 0-87.9 13.8-87.9 13.8 0 0 65.8 11.1 100.4 7.6 34.6-3.4 17.5-3.7 49 0 31.5 3.8 66.9 13.2 80.9 11.8 14.1-1.4-7.2 0.3 43.6 0.2 50.8-0.2 54.3 7.5 104.5 7.1 50.1-0.5 55.1-14.2 85.8-19.1 30.7-4.8 88.2 1.9 88.2 1.9q0-27.9 0-55.8z"/></svg>