<svg version="1.2" xmlns="http://www.w3.org/2000/svg" viewBox="0 0 1144 704" width="1144" height="704"><style>.a{fill:#7f0033}.b{fill:#500130}.c{fill:#c9223e}.d{fill:#2a102b}.e{fill:none;stroke:#7f0033;stroke-miterlimit:10;stroke-width:2}.f{fill:#ee4234}.g{fill:#de4f2f}.h{fill:#e2cf8f}</style><path class="a" d="m368.9 703l-57.1-0.1-311.4-0.7v-672.7l78.1 58.9 50.7 103.4 11.7 23.8c0.9 4.1 17.7 92.4 26.8 139.8q0.3 1.5 0.6 3 0.8 4.3 1.5 8.1 0.3 1.2 0.5 2.4 0.2 1.2 0.4 2.3 0.2 0.6 0.2 1.1c0.3 1.1 0.4 2.1 0.6 3q0.2 1 0.4 1.8 0.2 1.3 0.4 2.4c0.4 1.7 0.6 3.1 0.8 4q0.1 0.2 0.1 0.4 0.1 0.6 0.2 0.9 0.1 0.5 0.5 1c4.2 4.7 30.7 8.2 32.3 10.7 1.7 2.6 59.9 79.9 61.5 82 1.7 2 5 2.1 6 3.5 1 1.3 3.3-28.7 4.1-30.5 0.9-1.7 4.7-6.3 4.7-6.3 0 0 2.6 6.2 7.3 5.9 4.3-0.3 4.8-5.9 6.3-5.5q0 0.1 0.1 0.1 0.1 0 0.1 0 0.2 0.2 0.4 0.4c2 2.3 12.5 19.4 12.7 21.1 0.2 1.5 0 32.8 0.2 44.3q0 0.6 0 1.1 0.1 1.6 0.1 2.5 0 0.2 0 0.4 0.1 0.1 0.1 0.2c0.4 2.5 3.1 9.1 2.8 10.5-0.4 1.3 0.8 6.9 1 9.7 0.2 2.8 1.8 108.3 5.9 118.5q0.6 1.4 1.8 2.9c0.4 0.7 1 1.4 1.7 2.1 6.9 7.5 21.3 15.5 27.6 19.2q1.3 0.7 2.1 1.2 0 0 0 0 0.5 0.3 0.8 0.5c0.3 0.3 0.9 0.8 1.5 1.6 0.6 0.8 1.3 1.7 2.1 2.8 4.7 6.7 11.8 18.3 11.8 18.3z"/><path class="b" d="m311.8 702.9h-311.4v-673.4l78.1 58.9c1.4 15.7 3.1 36.3 2.4 39.5-0.5 2.1-2.5 4.6-4.8 7.1-3.6 4-7.7 8.1-7.7 11.3 0 5.3 7.3 28.9 7.3 28.9 0 0 7.4 85.8 7 87.5-0.4 1.8 2.7 33.3 2.7 33.3l-13.3 6.5c0 0 13.3 1.1 13.7 1.6 0.4 0.4 11 59.7 11 59.7l15.5 5.5c0 0 0.1 38.7 0 43.5-0.2 4.8-4 40.1-4 40.1l13.4-7.3c0 0 18.3 120.6 19.1 121 0.9 0.5 23.5 0.3 24.5 1.3 1 1.1 14.8 77.9 15.4 79.9 0.5 2 23.2 14.9 22.9 10.1-0.3-4.8-14.7-87.7-16.4-95.1-1.7-7.5-17.4-50.2-19.1-57.2-1.7-7-10.1-82.3-10.1-82.3 0 0 46 70.6 46.8 73.5 0.7 3 48.7 179.4 49.4 180.9 0.3 0.5 7.1 3.4 15.9 7.1 14.1 5.8 33.4 13.7 39.7 16.8l0.1 0.1c1.2 0.6 1.9 1 1.9 1.2z"/><path class="a" d="m41.3 246.5c0 0 8.8 40 8.8 42.9 0 2.9-3.2 16.1-3.2 16.1 0 0-8.8 1.7-9 0-0.2-1.8 3.4-59 3.4-59z"/><path class="a" d="m49.5 336.4c0 0 11.8 39.4 11.8 39.9 0 0.6-5.2 0.8-5.2 0.8 0 0-13.1-25.8-13.5-27.2-0.4-1.3-0.6-7.8-0.6-7.8z"/><path class="a" d="m63.4 467.9c0 0 8.5 25.7 8.5 29.5 0 3.8-3.8 102.4-5.3 107.4-1.5 4.9-6.9-123.7-7.1-128.4-0.2-4.7 3.9-8.5 3.9-8.5z"/><path class="a" d="m85.8 502.1c1.4-0.7 11-2.4 11-2.4l5.5 10.3 2.4 115.5c0 0-21 29.2-21.8 28.3-0.7-0.9 1.7-151.2 2.9-151.7z"/><path class="a" d="m108.3 656.3l9.9-12.9 27.8 33.6z"/><path class="c" d="m368.9 703l-31.9-0.1q0 0-0.1 0c-1-1.7-21.7-36.4-22.8-41.2-1.1-5-4.7-43.9-5.7-47.4-1-3.5 2.8-73.9 2.4-76.6-0.4-2.8-1.7-8.1-2.1-9.9-0.5-2-5.8-10.8-6.2-12.9-0.5-2 2-43.7 1.4-45.9-0.5-2.1-7.6-22.6-7.8-23.4q0.2 0.1 0.6 0.5c2 2.3 12.5 19.4 12.7 21.1 0.2 1.8-0.1 45.9 0.4 48.4 0.4 2.6 3.1 9.2 2.8 10.5-0.4 1.4 0.8 6.9 1 9.8 0.2 2.8 1.8 108.3 5.9 118.5 4.2 10.2 31.2 23.9 34 25.9 2.8 2.1 15.4 22.7 15.4 22.7z"/><path class="c" d="m273.7 482c-2.4 0-4.4-0.4-6.1-1h-0.1c-4.5-1.4-6.6-4.2-7.5-5.2-1.2-1.3-36.8-44.6-43.9-53.1-7-8.6-10-13.6-21.4-18-11.4-4.3-22.4-14.6-23.8-16.8-1.4-2.2-44.2-123.9-45.1-128.2-0.8-4.4 9.5-44 8.1-45.6-0.2-0.2-1.1-4-2.3-10-0.7-3.5-1.5-7.6-2.4-12.3l11.7 23.8c0.9 4.1 17.7 92.4 26.8 139.8q0.3 1.5 0.6 3 0.8 4.3 1.5 8.1 0.3 1.2 0.5 2.4 0.2 1.2 0.4 2.3 0.2 0.6 0.2 1.1 0.4 1.6 0.6 3 0.2 1 0.4 1.8 0.2 1.3 0.4 2.4 0.6 2.6 0.8 4 0.1 0.2 0.1 0.4 0.1 0.6 0.2 0.9 0.1 0.5 0.5 1c4.2 4.7 30.7 8.2 32.3 10.7 1.7 2.6 59.9 79.9 61.5 82 1.7 2 5 2.1 6 3.5z"/><path class="b" d="m273.7 481.9c0 0 0.8 44.2 1.7 59.1 0.8 14.9 3.3 47.3 3.3 48.6 0 1.3-2.5 6.1-2.5 6.1 0 0 6.8 73.5 8.2 76.6 1.4 3.1 25.5 29.4 25.5 29.4l-39.5-15.7c0 0-11.3-45.3-12.2-55.6-1-10.2-2.1-102.9-1.3-102.9 0.7 0 4.8 85.4 7.3 89.5 2.4 4.1 4.9 3.2 4.9 3.2 0 0-4.9-101.8-4.3-113.5 0.5-11.6 2.7-25.7 2.7-25.7z"/><path class="b" d="m288.8 467.1c0 0 0.7 170.3 0.7 177.1 0 6.7 1.5 23.6 6.6 32.6 5 9.1 21.7 26.1 21.7 26.1h7.9c0 0-26.8-61.4-26.8-67.5 0-6.1-2.8-79.5-2.8-79.5 0 0 2.7 9.9 2.9 16.2 0.2 6.3 0.4-40.7 0.4-40.7 0 0-5.5-11.4-6.2-14.4-0.8-3.1-4.4-49.9-4.4-49.9z"/><path class="a" d="m288.8 356.8c-0.9 3-1 4.2-3.1 6.6-1.9 2.2-3.1 3.3-3.1 3.3l1.5-0.5c0 0-1.1 1.2-2.6 2.6-1.5 1.5-4.6 3.3-4.2 3.2 0.3 0 1.7-0.4 2.5-0.7q-0.3 0.4-0.8 0.8c-1.4 1-3.5 2.4-3.4 2.4 0.1 0 0.5 0 1.1-0.1q-1.2 1-2.6 2.2c0.3 0 2.5-0.6 4.9-1.2-0.3 0.3-0.3 0.3-0.8 0.8-0.5 0.5-1.4 1.1-1.1 1 0.3 0 2.6-0.9 3.5-1.4 0.9-0.4 1.6-1 2.1-1.3l0.2-0.1c-0.5 0.7-1.8 2.3-1.7 2.3 0.6-0.1 3.3-1.8 3.3-1.7-2.2 3.7-6.6 6.1-6.4 6.1 0.5 0 3.1-0.7 2.9-0.4-0.3 0.3-3 2.4-4.4 3.4-1.3 1-1.9 1.3-1.6 1.3 0.2-0.1 1-0.2 2.2-0.4-2.7 2.2-4.5 3.3-4.5 3.3 0 0 1.5-0.4 3.4-0.9-1.2 1-2.1 1.7-1.9 1.7 0.3 0 4.7-1.9 4.6-1.7-0.1 0.2-1.3 1.4-1.3 1.4 0 0 2.8-1.1 3.5-1.5 0.6-0.4 0.7-0.4 0.7-0.4 0 0-1.3 1.8-0.8 1.5 0.4-0.2 1.6-0.5 1.9-0.7-1.2 3.6-5.9 5.7-5.9 5.7 0.2 0 2.1 0 2.1 0 0 0-1.3 0.9-3 2.1-1.8 1.2-4 2.3-3.7 2.3 0.2 0 1 0 2 0-3.8 2.4-7.2 4.1-7.2 4.1l3.6-0.8c-1.9 1.3-3.6 2.2-3.2 2.2 0.4 0 5.3-1.9 5-1.7-0.2 0.2-1.9 1.5-1.6 1.6 0.4 0 3.5-1.4 4.5-2 1-0.5 1.1-0.6 1.1-0.6 0 0-1.8 2.4-1.4 2.2 0.3-0.2 3.3-1.2 5.5-3.4-1.4 2.9-2.7 4.3-5.5 5.9-2.5 1.5-3.9 1.9-3.2 1.9 0.8 0 2-0.1 2-0.1 0 0 1.6-0.4-2 1.7-3.6 2.2-6.8 3.3-5.8 3.2 0.7-0.2 2 0.1 2.9 0.2-4.2 2.8-7.6 4.2-7 4.3 0.2 0 1.3-0.2 2.7-0.5-1.5 1-2.5 1.8-2 1.8 1.1-0.1 5.6-2.4 5.3-2-0.3 0.3-2.8 2.2-1.9 2 0.9-0.3 6.3-3.2 6.1-2.9-0.1 0.4-2.3 2.7-1.1 1.9 0.8-0.6 2.7-1.3 4.4-2.1-0.7 0.8-1.6 1.8-2.6 2.9-1.2 0.8-2.6 1.5-3.6 2-2.3 1-2.6 1.5-2.6 1.5l1.1 0.3c0 0-0.1 0.2-3.4 2.1-3.2 2-5.3 2.5-4.7 2.5 0.6 0.1 1.8 0 1.5 0.1-0.2 0.1-3 1.7-3 1.7 0 0 0.4 0.1 1.4 0.1-2.5 1.4-4.2 2.4-3.7 2.3 0.3 0 1.2-0.1 2.3-0.2-1.6 0.8-2.8 1.3-2.5 1.3 0.9 0 4.8-0.9 4.8-0.9 0 0-2 1.5-1.5 1.3 0.5-0.2 6.7-2 6.7-2 0 0-1.2 1.7-0.9 1.6 0.3-0.1 5.3-3 5.3-3 0 0-1.8 2.5-1 2 0.5-0.3 2.7-1.8 4.6-3.1-0.7 0.8-1.5 1.9-2.5 3-1 0.7-2 1.4-2.8 1.8-1.7 0.8-2.6 1.1-2.3 1.1 0.3 0 1.5 0.1 1.5 0.1 0 0-0.6 0.9-2.4 2.1-1.9 1.2-3 1.7-2.8 1.8 0.2 0 1.4-0.1 1.1 0-0.2 0.2-4.1 2.7-4 2.7 0.1 0 0.5 0.1 1.3 0-1.6 1.1-2.3 1.6-1.5 1.4 0.3 0 0.9-0.2 1.8-0.4-0.7 0.6-1.1 1-0.8 1.1 0.9 0.1 3.8-1 3.8-1 0 0-0.7 1.1-0.4 0.9 0.4-0.2 3.8-2 3.8-2 0 0-0.3 1.4 0.1 1.2 0.3-0.3 4-3.2 4-3.2l0.8 0.7c-2 2.1-3.9 4.1-3.6 4 0.2-0.1 1.2-0.3 2.8-0.6-0.6 0.6-1 1-0.7 1 0.8 0 4.3-1 4.3-1 0 0-0.4 1.1 0.2 0.8 0.7-0.3 5.4-2.4 5.4-2.4 0 0-0.2 1.5 0.3 1.3 0.5-0.1 4.2-2.8 4.2-2.8 0 0 0 1.7 0.3 1.4 0.1-0.1 0.4-0.4 0.7-0.8v14.3h2.5 2.4v-14.3c0.4 0.4 0.6 0.7 0.7 0.8 0.3 0.3 0.3-1.4 0.3-1.4 0 0 3.8 2.7 4.3 2.8 0.5 0.2 0.2-1.3 0.2-1.3 0 0 4.7 2.1 5.4 2.4 0.7 0.3 0.2-0.8 0.2-0.8 0 0 3.5 1 4.3 1 0.3 0-0.1-0.4-0.7-1 1.6 0.3 2.6 0.5 2.8 0.6 0.3 0.1-1.6-1.9-3.6-4l0.8-0.7c0 0 3.7 2.9 4.1 3.2 0.3 0.2 0.1-1.2 0.1-1.2 0 0 3.4 1.8 3.7 2 0.3 0.2-0.4-0.9-0.4-0.9 0 0 2.9 1.1 3.9 1 0.2-0.1-0.1-0.5-0.8-1.1 0.8 0.2 1.4 0.4 1.7 0.4 0.8 0.2 0.1-0.3-1.5-1.4 0.9 0.1 1.2 0 1.3 0 0.1 0-3.7-2.5-4-2.7-0.2-0.1 1 0 1.2 0 0.2-0.1-1-0.6-2.9-1.8-1.8-1.2-2.4-2.1-2.4-2.1 0 0 1.2-0.1 1.6-0.1 0.3 0-0.7-0.3-2.4-1.1-0.7-0.4-1.8-1.1-2.8-1.8-1-1.1-1.8-2.2-2.5-3 2 1.3 4.2 2.8 4.6 3.1 0.8 0.5-1-2-1-2 0 0 5.1 2.9 5.3 3 0.3 0.1-0.9-1.6-0.9-1.6 0 0 6.2 1.8 6.7 2 0.5 0.2-1.5-1.3-1.5-1.3 0 0 3.9 0.9 4.8 0.9 0.3 0-0.8-0.5-2.5-1.3 1.2 0.1 2 0.2 2.4 0.2 0.5 0.1-1.3-0.9-3.7-2.3 0.9 0 1.3-0.1 1.3-0.1 0 0-2.7-1.6-3-1.7-0.3-0.1 0.9 0 1.5-0.1 0.7 0-1.5-0.5-4.7-2.5-3.2-1.9-3.3-2.1-3.3-2.1l1.1-0.3c0 0-0.4-0.5-2.7-1.5-1-0.5-2.3-1.2-3.6-2-1-1.1-1.9-2.1-2.5-2.9 1.6 0.8 3.5 1.5 4.3 2.1 1.3 0.8-1-1.5-1.1-1.9-0.2-0.3 5.3 2.6 6.2 2.9 0.9 0.2-1.7-1.7-2-2-0.3-0.4 4.3 1.9 5.4 2 0.4 0-0.6-0.8-2.1-1.8 1.5 0.3 2.5 0.5 2.7 0.5 0.7-0.1-2.8-1.5-7-4.3 0.9-0.1 2.2-0.4 2.9-0.2 1 0.1-2.1-1-5.8-3.2-3.6-2.1-2-1.7-2-1.7 0 0 1.3 0.1 2 0.1 0.7 0-0.7-0.4-3.2-1.9-2.8-1.6-4-3-5.4-5.9 2.1 2.2 5.1 3.2 5.4 3.4 0.4 0.2-1.4-2.2-1.4-2.2 0 0 0.1 0.1 1.1 0.6 1 0.6 4.1 2 4.5 2 0.3-0.1-1.4-1.4-1.6-1.6-0.3-0.2 4.6 1.7 5 1.7 0.4 0-1.3-0.9-3.2-2.2l3.7 0.8c0 0-3.5-1.7-7.3-4.1 1 0 1.8 0 2.1 0 0.2 0-2-1.1-3.8-2.3-1.7-1.2-2.9-2.1-2.9-2.1 0 0 1.8 0 2 0 0.1 0-4.7-2.1-5.8-5.7 0.3 0.2 1.4 0.5 1.9 0.7 0.4 0.3-0.8-1.5-0.8-1.5 0 0 0.1 0 0.7 0.4 0.6 0.4 3.5 1.5 3.5 1.5 0 0-1.2-1.2-1.3-1.4-0.2-0.2 4.3 1.7 4.5 1.7 0.2 0-0.7-0.7-1.9-1.7 1.9 0.5 3.5 0.9 3.5 0.9 0 0-1.9-1.1-4.6-3.3 1.2 0.2 2 0.3 2.3 0.4 0.2 0-0.3-0.3-1.7-1.3-1.4-1-4.1-3.1-4.3-3.4-0.2-0.3 2.3 0.4 2.8 0.4 0.2 0-4.2-2.4-6.3-6.1-0.1-0.1 2.6 1.6 3.2 1.7 0.1 0-1.2-1.6-1.7-2.3l0.2 0.1c0.5 0.3 1.2 0.9 2.1 1.3 0.9 0.5 3.3 1.4 3.6 1.4 0.3 0.1-0.6-0.5-1.1-1-0.5-0.5-0.5-0.5-0.8-0.8 2.3 0.6 4.5 1.2 4.8 1.2q-1.4-1.2-2.5-2.2c0.5 0.1 1 0.1 1 0.1 0.1 0-1.9-1.4-3.4-2.4q-0.4-0.4-0.8-0.8c0.9 0.3 2.2 0.7 2.5 0.7 0.4 0.1-2.6-1.7-4.2-3.2-1.5-1.4-2.6-2.6-2.6-2.6l1.5 0.5c0 0-1.2-1.1-3.1-3.3-2.1-2.4-2.2-3.6-3-6.6z"/><path class="c" d="m289.8 438.8c0 0 0.9 1.5 1.4 2.3v12.7h-1.8v-14.4c0.2 0.4 0.3 0.7 0.3 0.8 0.1 0.3 0.1-1.4 0.1-1.4z"/><path class="c" d="m294.5 375.8q0 0 0 0c-0.1-0.1-0.2-0.2-0.4-0.4q0.8 0.2 1.6 0.4c0.4 0.5 0.6 0.9 0.6 0.9-0.3-0.1-1.1-0.5-1.8-0.9z"/><path class="c" d="m297.4 387.7q-0.2-0.1-0.4-0.3c0.8 0.2 1.6 0.4 2.2 0.6 0.3 0.3 0.7 0.7 0.8 0.8-0.2-0.1-1.6-0.6-2.6-1.1z"/><path class="c" d="m287.3 363.4q-0.4-0.6-0.8-1c1.3-1.8 1.5-3 2.3-5.6 0.8 3 0.9 4.2 3 6.6 1.9 2.2 3.1 3.3 3.1 3.3l-1.5-0.5c0 0 1.1 1.2 2.6 2.6 1.4 1.4 4 2.9 4.2 3.2-0.3 0-1.6-0.4-2.5-0.7q0.4 0.4 0.8 0.8c1.4 1 3.4 2.3 3.4 2.4 0 0-0.5 0-1.1-0.1q1.2 1 2.6 2.3c-0.3-0.1-2.5-0.7-4.8-1.3 0.3 0.3 0.2 0.3 0.7 0.8 0.5 0.5 1.4 1.1 1.1 1-0.1 0-0.9-0.3-1.8-0.6q0.3 0 0.3 0.1-1.3-1.3-2.5-2.3c0.6 0.1 1 0.1 1.1 0.1 0-0.1-2-1.4-3.5-2.4l-0.8-0.8c0.9 0.3 2.2 0.7 2.6 0.7-0.3-0.3-2.8-1.8-4.2-3.2-1.6-1.4-2.6-2.6-2.6-2.6l1.5 0.5c0 0-1.2-1.1-3.2-3.3z"/><path class="c" d="m302.1 402.1c0.3 0.4 0.5 0.8 0.3 0.7-0.1-0.1-0.5-0.2-1-0.5-0.4-0.3-0.8-0.6-0.9-0.7-0.1 0 0.6 0.2 1.6 0.5z"/><path class="c" d="m304.8 388.2c-0.3 0-1.7-0.4-3.4-0.8 1.2 1 2.1 1.7 1.9 1.7-0.2 0-2.7-1-3.9-1.5q0 0 0 0c-0.8-0.5-2-1.4-3.5-2.6 1.1 0.2 2 0.3 2.2 0.4 0.3 0.1-0.3-0.3-1.7-1.3-1.3-1-4.1-3.1-4.3-3.4-0.2-0.2 2.4 0.5 2.9 0.5 0-0.1-4.3-2.6-6.4-6.2 0.1 0 2.7 1.6 3.2 1.7 0.2 0-1.1-1.6-1.6-2.3l0.2 0.1c0.5 0.3 1.1 0.9 2 1.3 0.4 0.2 1.1 0.5 1.7 0.8 2.3 2.7 5.3 4.5 5.3 4.6-0.5 0-3.1-0.7-2.8-0.5 0.2 0.3 2.9 2.4 4.3 3.4 1.4 1 1.9 1.4 1.7 1.3-0.3-0.1-1.1-0.2-2.3-0.4 2.4 2 4.1 3 4.5 3.2z"/><path class="c" d="m304.1 402.2q-0.8-0.5-1.7-1.1l2.6 0.6c0.4 0.3 1.9 1.5 1.6 1.5-0.2 0-1.4-0.5-2.5-1z"/><path class="c" d="m306.3 416.2c0.5 0.6 0.8 1 0.1 0.6q-0.2-0.2-0.6-0.4c-0.4-0.3-0.7-0.5-0.7-0.6-0.1-0.2 0.4 0.1 1.2 0.4z"/><path class="c" d="m308.4 430.3c-0.1-0.1-0.4-0.3-0.8-0.5 0.2 0 0.5 0.1 0.9 0.3 0.1 0.2 0.1 0.4-0.1 0.2z"/><path class="c" d="m308.7 442.5c-0.2-0.1-1.2-0.3-2.8-0.6 0.6 0.6 1 1 0.7 1-0.4 0-1.4-0.3-2.4-0.5-0.3-0.4-1.9-2.2-3.5-3.9l0.7-0.7c0 0 3.8 2.9 4.1 3.2 0.3 0.3 0.1-1.1 0.1-1.1 0 0 0.7 0.3 1.5 0.7 1.1 1.2 1.8 2 1.6 1.9z"/><path class="c" d="m301.5 395.5c1.8 1.2 4 2.3 3.7 2.3-0.2 0-1 0-2 0 3.5 2.2 6.8 3.9 7.2 4.1l-3.6-0.8c1.9 1.3 3.6 2.3 3.2 2.2-0.3 0-3.2-1.1-4.4-1.5l0.4 0.1c-0.4-0.2-3.7-1.9-7.3-4.1 1.1 0 1.8 0 2.1 0 0.3 0-2-1.1-3.7-2.3-1.7-1.2-3-2.1-3-2.1 0 0 1.9 0 2.1 0 0 0-4.7-2.1-5.9-5.7 0.3 0.2 1.4 0.5 1.9 0.7 0.5 0.3-0.8-1.5-0.8-1.5 0 0 0.1 0 0.7 0.4 0.5 0.3 2.2 1 3.1 1.4 1.6 3 5.4 4.7 5.4 4.7-0.2 0-2.1 0-2.1 0 0 0 1.3 0.9 3 2.1z"/><path class="c" d="m310.2 416.4c0.8 0.7 1.9 1.6 1.3 1.4-0.3-0.1-0.9-0.4-1.6-0.7q0 0-0.1 0-0.5-0.5-1.4-1.1c0.7 0.1 1.3 0.3 1.8 0.4z"/><path class="c" d="m298 405.4c-2.9-1.7-4.1-3-5.5-6 2.2 2.2 5.2 3.2 5.5 3.4 0.3 0.2-1.2-1.9-1.4-2.1 0.1 0 0.3 0.1 1.1 0.5q0.1 0.1 0.4 0.2c1 1.7 2.2 2.8 4.3 4 2.5 1.4 3.9 1.8 3.2 1.8-0.7 0-2-0.1-2-0.1 0 0-1.6-0.4 2 1.8 3.6 2.1 6.8 3.2 5.8 3.1-0.7-0.2-2 0.2-2.9 0.2 4.2 2.8 7.6 4.2 7 4.3-0.2 0-1.3-0.2-2.7-0.5 1.5 1 2.5 1.8 2.1 1.8-0.7-0.1-2.4-0.8-3.8-1.4q0 0 0 0c-0.6-0.5-3.6-1.9-7.1-4.2 1 0 2.2-0.4 3-0.2 0.9 0.1-2.2-1-5.8-3.1-3.6-2.2-2-1.8-2-1.8 0 0 1.2 0.1 1.9 0.1 0.8 0-0.6-0.4-3.1-1.8z"/><path class="c" d="m318.2 441.3c-0.3-0.1-0.9-0.3-1.7-0.5 0.6 0.6 1 1 0.8 1.1-0.7 0-2.4-0.5-3.3-0.8-0.2-0.2-0.8-0.7-1.7-1.3 0.8 0.1 1.2 0 1.2 0 0-0.1-3.7-2.5-3.9-2.7-0.3-0.1 0.9 0 1.1 0 0.2-0.1-0.9-0.6-2.8-1.8-1.9-1.2-2.4-2.1-2.4-2.1 0 0 1.2-0.1 1.5-0.1 0.3 0-0.6-0.3-2.3-1.1-0.8-0.4-1.9-1-2.9-1.7-0.9-1.2-1.8-2.3-2.4-3.1 1.9 1.3 4.1 2.8 4.5 3.1 0.8 0.5-0.9-2-0.9-2 0 0 1.7 1 3.1 1.8q0.1 0.1 0.2 0.2c1 0.7 2 1.3 2.8 1.7 1.7 0.8 2.7 1.1 2.3 1.1-0.3 0-1.5 0.1-1.5 0.1 0 0 0.6 0.9 2.4 2.1 1.9 1.2 3 1.7 2.9 1.8-0.2 0-1.4-0.1-1.2 0 0.3 0.2 4 2.6 4 2.7-0.1 0-0.5 0.1-1.3 0 1.6 1.1 2.3 1.6 1.5 1.5z"/><path class="c" d="m321.8 431.3c-0.8 0-4.3-0.8-4.7-0.8 0.3 0.2 1.8 1.4 1.4 1.2-0.1 0-0.6-0.2-1.3-0.4h0.1c0.4 0-0.8-0.5-2.5-1.3 1.2 0.1 2.1 0.2 2.4 0.2 0.5 0.1-1.2-0.9-3.7-2.3 1 0 1.4-0.1 1.4-0.1 0 0-2.8-1.5-3.1-1.7-0.3-0.1 1 0 1.6-0.1 0.6 0-1.5-0.5-4.8-2.5-3.2-1.9-3.3-2.1-3.3-2.1l1.1-0.3c0 0-0.4-0.5-2.7-1.5-1-0.5-2.3-1.2-3.5-2-1.1-1.1-1.9-2.1-2.6-2.9 1.6 0.8 3.6 1.5 4.4 2.1 1.2 0.8-1-1.5-1.2-1.9-0.1-0.1 1 0.4 2.3 1q0.7 0.8 1.5 1.7c1.3 0.8 2.6 1.5 3.6 2 2.3 1 2.7 1.5 2.7 1.5l-1.2 0.3c0 0 0.2 0.2 3.4 2.1 3.2 2 5.3 2.5 4.7 2.5-0.6 0.1-1.8 0-1.5 0.1 0.2 0.2 3 1.7 3 1.7 0 0-0.4 0.1-1.3 0.1 2.4 1.4 4.2 2.4 3.7 2.3-0.4 0-1.2-0.1-2.4-0.2 1.7 0.8 2.8 1.3 2.5 1.3z"/><path class="c" d="m294.9 388.2c0.3 0.2 0.6 0.5 0.7 0.6q-0.1 0-0.4-0.1-0.2-0.3-0.3-0.5z"/><path class="c" d="m294.1 376.6q-0.6-0.8-1.1-1.6c0.1 0 0.8 0.4 1.5 0.8q0 0 0 0l0.4 0.4c0.5 0.5 1.4 1.1 1.1 1-0.2 0-1-0.3-1.9-0.6z"/><path class="c" d="m295.7 375.8c-0.4-0.5-0.8-1.1-1.1-1.4l0.2 0.1c0.5 0.3 1.2 0.9 2.1 1.3 0.4 0.2 1 0.5 1.7 0.8-0.6-0.2-1.6-0.4-2.9-0.8z"/><path class="c" d="m298.8 389.1c-0.1 0-1.1-0.4-2.1-0.8-0.1-0.4-0.8-1.4-0.8-1.4 0 0 0 0 0.7 0.4 0.1 0.1 0.4 0.3 0.8 0.4 1 0.9 1.7 1.4 1.4 1.4z"/><path class="c" d="m299.2 388c-0.2-0.3-0.4-0.5-0.5-0.6 0 0 0.3 0.1 0.7 0.2q0 0 0 0 0.8 0.5 0.9 0.6c-0.1 0-0.5-0.1-1.1-0.2z"/><path class="c" d="m298.1 401.4c-0.4-0.6-0.8-1.2-1.1-2 1.4 1.4 3.2 2.4 4.4 2.9 0.4 0.4 0.9 0.9 0.7 0.9-0.3 0-2.8-1.1-4-1.8z"/><path class="c" d="m302.2 442.7q0.2 0.2 0 0.2c-0.8 0-4.3-1-4.3-1 0 0 0.4 1.1-0.3 0.8-0.6-0.3-5.4-2.4-5.4-2.4 0 0 0.3 1.5-0.2 1.3-0.1 0-0.4-0.2-0.8-0.5v-1.7c0.3 0.4 0.6 0.7 0.7 0.8 0.3 0.3 0.3-1.4 0.3-1.4 0 0 3.8 2.7 4.3 2.8 0.5 0.2 0.2-1.3 0.2-1.3 0 0 4.7 2.1 5.4 2.4 0 0 0.1 0 0.1 0z"/><path class="c" d="m302.1 402.1c-0.4-0.6-1-1.3-1.1-1.4 0.1 0 0.4 0.1 1.1 0.5 0.4 0.3 1.2 0.6 2 1 1 0.7 1.7 1.1 1.5 1.1-0.2 0-2.1-0.7-3.5-1.2z"/><path class="c" d="m307 417.8c-0.5-0.2-2.4-1.1-3.9-1.9q-0.6-0.7-1-1.2c1.2 0.7 2.7 1.2 3.7 1.7 0.8 0.7 1.8 1.6 1.2 1.4z"/><path class="c" d="m310.4 417.8c-0.7-0.1-2.7-1-4.1-1.6-0.4-0.5-1-1.1-1-1.3-0.2-0.2 2.6 1.2 4.5 2.2q0.1 0 0.1 0c0.5 0.4 0.8 0.7 0.5 0.7z"/><path class="c" d="m307.6 429.8q-0.3-0.1-0.3-0.1c0 0 1.3 1.7 1 1.6-0.1-0.1-1.1-0.6-2.2-1.2-0.9-1.1-1.7-2.1-2.3-2.9 1.4 0.9 2.9 1.9 3.8 2.6z"/><path class="c" d="m310.2 416.4c-0.3-0.3-0.6-0.5-0.7-0.6-0.1-0.2 0.6 0.1 1.6 0.6q0 0 0 0 0.1 0.1 0 0.1-0.2 0-0.9-0.1z"/><path class="c" d="m312.2 441c0.6 0.5 0.8 0.8 0.6 0.9-0.9 0.1-3.5-0.9-3.8-1 0.1 0.1 0.7 1.1 0.4 0.9-0.2-0.1-1.4-0.7-2.3-1.2-0.6-0.6-1.3-1.4-2-2.1l0.8-0.7c0 0 3.7 2.9 4.1 3.2 0.3 0.3 0.1-1.1 0.1-1.1 0 0 1.1 0.6 2.1 1.1z"/><path class="c" d="m314 441.1q0.2 0.2-0.2 0.2-0.1-0.1-0.2-0.1c-0.1-0.1-0.2-0.3-0.2-0.3 0.1 0 0.3 0.1 0.6 0.2z"/><path class="c" d="m314 431.7c-0.3-0.1-3.7-1.1-5.5-1.6-0.3-0.6-1.1-1.8-1.1-1.8 0 0 5.1 2.9 5.3 3 0.3 0.1-0.9-1.6-0.9-1.6 0 0 3.4 1 5.3 1.6-1-0.1-4.1-0.8-4.5-0.8 0.3 0.1 1.9 1.4 1.4 1.2z"/><path class="a" d="m143.1 132.7c-1.3 1.7-1.6 2.5-3.5 3.6-1.8 1-2.9 1.5-2.9 1.5h1.2c0 0-1 0.5-2.4 1.1-1.3 0.6-3.8 1.1-3.5 1.2 0.3 0 1.2 0 1.8 0.1q-0.3 0.1-0.6 0.3c-1.3 0.3-2.9 0.8-2.9 0.8 0 0 0.3 0.1 0.8 0.2q-1.1 0.4-2.3 0.9c0.3 0 1.8 0.2 3.5 0.3-0.2 0.1-0.2 0.1-0.7 0.3-0.4 0.2-1.1 0.4-0.9 0.5 0.2 0 1.9 0 2.6-0.1 0.7-0.2 1.3-0.3 1.7-0.5h0.2c-0.5 0.4-1.8 1.2-1.7 1.2 0.5 0 2.6-0.4 2.6-0.4-2.3 1.9-5.8 2.5-5.7 2.6 0.4 0.1 2.2 0.2 2 0.4-0.2 0.1-2.5 0.8-3.6 1.2-1.2 0.3-1.6 0.4-1.4 0.5 0.2 0 0.7 0.1 1.5 0.2-2.2 0.8-3.7 1.1-3.7 1.1 0 0 1.1 0.1 2.4 0.3-1 0.4-1.7 0.6-1.6 0.6 0.2 0.1 3.5-0.1 3.4 0-0.1 0.1-1.2 0.6-1.2 0.6 0 0 2.2-0.1 2.7-0.2 0.5-0.1 0.6-0.1 0.6-0.1 0 0-1.3 0.9-0.9 0.8 0.3 0 1.2 0 1.4 0-1.6 2.1-5.2 2.4-5.2 2.4 0.1 0 1.4 0.5 1.4 0.5 0 0-1.1 0.3-2.5 0.7-1.4 0.4-3.1 0.6-3 0.6 0.2 0.1 0.7 0.3 1.4 0.5-3.1 0.7-5.8 1-5.8 1l2.6 0.4c-1.5 0.4-2.9 0.6-2.6 0.7 0.3 0 3.9 0 3.7 0-0.2 0.1-1.6 0.6-1.4 0.7 0.2 0.1 2.6-0.1 3.4-0.3 0.8-0.1 0.9-0.1 0.9-0.1 0 0-1.7 1.2-1.5 1.1 0.3-0.1 2.5-0.1 4.4-1-1.6 1.6-2.7 2.3-4.9 2.7-2 0.4-3 0.3-2.6 0.5 0.5 0.1 1.4 0.3 1.4 0.3 0 0 1.1 0.2-1.8 0.8-2.9 0.5-5.2 0.6-4.5 0.7 0.5 0.1 1.3 0.6 1.8 0.8-3.4 0.9-6 1-5.6 1.2 0.2 0.1 0.9 0.2 1.9 0.3-1.2 0.3-2 0.6-1.7 0.7 0.7 0.2 4.2-0.2 4-0.1-0.3 0.2-2.5 0.9-1.8 0.9 0.7 0 4.9-0.6 4.8-0.4-0.2 0.1-2.3 1.2-1.2 0.9 0.6-0.2 2.1-0.2 3.3-0.4-0.6 0.4-1.4 0.9-2.3 1.4-1 0.2-2.1 0.4-2.8 0.4-1.8 0.2-2.2 0.4-2.2 0.4l0.7 0.5c0 0-0.1 0.1-2.7 0.6-2.6 0.6-4.1 0.4-3.7 0.6 0.4 0.2 1.2 0.4 1 0.4-0.2 0-2.4 0.4-2.4 0.4 0 0 0.2 0.2 0.9 0.4-2 0.4-3.4 0.6-3 0.7 0.2 0 0.8 0.2 1.6 0.4-1.3 0.1-2.2 0.2-2 0.3 0.6 0.2 3.4 0.5 3.4 0.5 0 0-1.6 0.5-1.3 0.5 0.4 0 4.9 0.2 4.9 0.2 0 0-1.2 0.8-1 0.8 0.2 0 4.2-0.7 4.2-0.7 0 0-1.7 1.3-1.1 1.1 0.4-0.1 2.2-0.6 3.8-1-0.7 0.4-1.5 0.9-2.4 1.5-0.8 0.2-1.7 0.4-2.3 0.5-1.3 0.1-1.9 0.1-1.7 0.2 0.2 0 0.9 0.4 0.9 0.4 0 0-0.5 0.4-2 0.8-1.6 0.4-2.4 0.4-2.3 0.5 0.1 0.1 0.9 0.3 0.7 0.3-0.2 0.1-3.3 0.8-3.2 0.8 0 0.1 0.3 0.2 0.8 0.3-1.3 0.4-1.8 0.6-1.3 0.7 0.2 0 0.7 0 1.3 0.1-0.6 0.2-1 0.4-0.8 0.5 0.6 0.3 2.8 0.2 2.8 0.2 0 0-0.8 0.6-0.5 0.6 0.3-0.1 2.9-0.5 2.9-0.5 0 0-0.5 0.9-0.2 0.8 0.3-0.1 3.5-1.2 3.5-1.2l0.3 0.7c-1.8 0.9-3.5 1.8-3.3 1.8 0.1-0.1 0.9 0.1 2 0.2-0.6 0.3-0.9 0.5-0.7 0.6 0.5 0.1 3.1 0.3 3.1 0.3 0 0-0.6 0.6-0.1 0.6 0.5-0.1 4.2-0.4 4.2-0.4 0 0-0.6 1-0.2 1 0.4 0 3.5-0.9 3.5-0.9 0 0-0.4 1.1-0.1 1 0-0.1 0.3-0.2 0.6-0.4l-3.3 9.5 1.6 0.5 1.6 0.6 3.3-9.5c0.2 0.4 0.3 0.6 0.3 0.7 0.1 0.3 0.5-0.8 0.5-0.8 0 0 1.9 2.6 2.2 2.8 0.3 0.2 0.4-0.8 0.4-0.8 0 0 2.7 2.5 3.1 2.8 0.3 0.4 0.3-0.5 0.3-0.5 0 0 2.1 1.5 2.6 1.7 0.2 0.1 0-0.3-0.2-0.8 0.9 0.5 1.6 0.9 1.7 1 0.1 0.2-0.7-1.6-1.5-3.4l0.7-0.3c0 0 1.8 2.7 2 3 0.1 0.3 0.3-0.7 0.3-0.7 0 0 1.8 2 2 2.1 0.2 0.2 0-0.7 0-0.7 0 0 1.6 1.4 2.3 1.6 0.2 0 0-0.3-0.3-0.9 0.5 0.3 0.9 0.6 1 0.7 0.5 0.3 0.2-0.2-0.6-1.3 0.5 0.2 0.8 0.3 0.8 0.3 0.1 0-1.8-2.5-2-2.7-0.1-0.2 0.7 0.2 0.8 0.2 0.1 0-0.5-0.6-1.4-1.8-1-1.2-1.1-1.9-1.1-1.9 0 0 0.8 0.2 1 0.3 0.2 0-0.4-0.4-1.3-1.3-0.4-0.4-1-1.1-1.5-1.8-0.4-1-0.7-1.9-0.9-2.6 1 1.3 2.1 2.8 2.3 3.1 0.4 0.5-0.2-1.5-0.2-1.5 0 0 2.7 3 2.8 3.1 0.2 0.2-0.2-1.2-0.2-1.2 0 0 3.6 2.6 3.9 2.9 0.3 0.2-0.6-1.2-0.6-1.2 0 0 2.4 1.5 2.9 1.7 0.2 0-0.4-0.6-1.3-1.5 0.7 0.4 1.3 0.6 1.5 0.7 0.3 0.1-0.6-0.9-1.9-2.4 0.6 0.3 0.9 0.3 0.9 0.3 0 0-1.5-1.7-1.6-1.8-0.2-0.2 0.6 0.1 1 0.2 0.4 0.2-0.8-0.7-2.5-2.7-1.7-2-1.7-2.2-1.7-2.2l0.8 0.1c0 0-0.2-0.4-1.5-1.7-0.5-0.5-1.2-1.3-1.9-2.1-0.4-0.9-0.7-1.8-1-2.5 0.9 0.9 2 1.8 2.4 2.4 0.7 0.8-0.3-1.2-0.3-1.5 0-0.3 2.9 2.9 3.4 3.3 0.5 0.4-0.7-1.5-0.8-1.8-0.1-0.3 2.3 2.3 3.1 2.6 0.2 0.1-0.2-0.7-1-1.7 0.9 0.6 1.5 1 1.7 1 0.4 0.1-1.5-1.6-3.7-4.4 0.7 0.1 1.6 0.2 2 0.5 0.6 0.3-1.2-1.2-3.1-3.4-1.9-2.3-0.9-1.7-0.9-1.7 0 0 0.8 0.4 1.3 0.6 0.5 0.1-0.4-0.5-1.7-2-1.5-1.7-2-2.9-2.2-5.2 0.9 1.9 2.6 3.3 2.8 3.5 0.2 0.2-0.4-1.7-0.4-1.7 0 0 0 0 0.6 0.6 0.5 0.6 2.2 2.3 2.5 2.3 0.2 0.1-0.6-1.2-0.7-1.4-0.2-0.1 2.7 2.2 2.9 2.3 0.3 0.1-0.6-0.9-1.6-2.2l2.2 1.4c0 0-1.9-1.9-3.8-4.4 0.6 0.3 1.2 0.4 1.3 0.5 0.2 0-1-1.2-1.9-2.4-0.9-1.2-1.5-2.1-1.5-2.1 0 0 1.3 0.4 1.4 0.5 0 0-2.6-2.5-2.6-5.1 0.2 0.1 0.9 0.6 1.1 0.9 0.3 0.2-0.1-1.2-0.1-1.2 0 0 0 0 0.3 0.4 0.3 0.4 2 1.8 2 1.8 0 0-0.5-1-0.6-1.2 0-0.1 2.5 2.1 2.7 2.2 0.1 0-0.3-0.6-0.9-1.6 1.2 0.8 2.1 1.4 2.1 1.4 0 0-1-1.2-2.2-3.2 0.7 0.4 1.2 0.6 1.3 0.7 0.2 0.1-0.1-0.2-0.8-1.2-0.6-1-2-3-2.1-3.2 0-0.3 1.5 0.8 1.8 0.9 0.1 0.1-2.2-2.6-2.8-5.5 0-0.1 1.4 1.6 1.8 1.8 0.1 0.1-0.4-1.3-0.6-1.9l0.1 0.1c0.3 0.4 0.6 0.9 1.1 1.4 0.5 0.5 1.8 1.7 2 1.8 0.2 0.1-0.3-0.5-0.5-1-0.2-0.4-0.2-0.4-0.3-0.7 1.4 1 2.7 1.9 2.9 2q-0.6-1.2-1.2-2.1c0.4 0.2 0.7 0.3 0.7 0.3 0.1 0-0.9-1.4-1.7-2.4q-0.2-0.3-0.3-0.7c0.5 0.4 1.3 1 1.5 1.1 0.2 0.1-1.4-1.8-2.1-3.1-0.6-1.3-1.1-2.3-1.1-2.3l0.9 0.6c0 0-0.5-1-1.3-2.9-0.8-2.1-0.6-2.9-0.5-5z"/><path class="c" d="m142.5 146.6q0-0.1 0-0.1c0-0.1-0.1-0.1-0.1-0.3q0.4 0.3 0.9 0.6c0.1 0.4 0.2 0.8 0.2 0.7-0.2-0.1-0.6-0.5-1-0.9z"/><path class="c" d="m141.7 155.1q-0.1-0.2-0.2-0.3c0.5 0.3 1 0.6 1.3 0.9 0.1 0.3 0.3 0.6 0.4 0.7-0.2-0.1-1-0.8-1.5-1.3z"/><path class="c" d="m140.7 136.7q-0.2-0.5-0.3-0.9c1.2-0.9 1.6-1.6 2.7-3.1-0.1 2.1-0.3 2.9 0.5 5 0.8 1.9 1.3 2.9 1.3 2.9l-0.9-0.6c0 0 0.5 1 1.1 2.3 0.6 1.2 2 2.8 2.1 3.1-0.2-0.1-1-0.7-1.5-1.1q0.1 0.4 0.3 0.7c0.8 1 1.8 2.3 1.7 2.4 0 0-0.3-0.1-0.7-0.3q0.6 0.9 1.2 2.1c-0.2-0.1-1.5-1-2.9-2 0.1 0.3 0.1 0.3 0.3 0.7 0.2 0.5 0.7 1 0.5 1-0.1-0.1-0.6-0.5-1-0.9q0.1 0.1 0.2 0.1-0.7-1.1-1.2-2.1c0.4 0.2 0.6 0.4 0.7 0.4 0-0.1-1-1.4-1.7-2.4l-0.4-0.7c0.6 0.3 1.3 0.9 1.6 1.1-0.2-0.3-1.5-1.9-2.1-3.1-0.7-1.4-1.1-2.4-1.1-2.4l0.9 0.7c0 0-0.6-1-1.3-2.9z"/><path class="c" d="m141.4 165.7c0.1 0.3 0.2 0.6 0.1 0.5 0 0-0.3-0.2-0.6-0.5-0.1-0.3-0.3-0.6-0.4-0.7 0-0.1 0.4 0.2 0.9 0.7z"/><path class="c" d="m146.4 157.1c-0.2-0.1-1-0.6-2-1.3 0.6 1 1 1.6 0.9 1.6-0.2-0.1-1.6-1.3-2.3-1.9q0 0 0 0c-0.4-0.5-1-1.4-1.7-2.6 0.7 0.5 1.2 0.7 1.4 0.8 0.1 0.1-0.2-0.2-0.8-1.2-0.7-1-2-3-2.1-3.2-0.1-0.3 1.5 0.8 1.8 0.9 0-0.1-2.2-2.7-2.8-5.5 0.1 0 1.4 1.6 1.7 1.8 0.1 0.1-0.3-1.3-0.5-1.9l0.1 0.1c0.3 0.4 0.6 0.9 1.1 1.4 0.2 0.2 0.5 0.5 0.9 0.9 0.8 2.3 2.4 4.2 2.4 4.2-0.3-0.1-1.8-1.2-1.8-0.9 0.1 0.2 1.5 2.2 2.1 3.2 0.7 1 1 1.3 0.8 1.3-0.1-0.2-0.6-0.4-1.3-0.8 1.1 1.8 2 2.9 2.1 3.1z"/><path class="c" d="m142.7 166.2q-0.3-0.5-0.8-1.1l1.6 1c0.2 0.3 0.9 1.4 0.7 1.3-0.2 0-0.8-0.6-1.5-1.2z"/><path class="c" d="m141 176c0.2 0.5 0.3 0.8-0.1 0.4q-0.1-0.2-0.3-0.4c-0.2-0.3-0.3-0.5-0.3-0.6-0.1-0.1 0.2 0.2 0.7 0.6z"/><path class="c" d="m139.1 185.8q-0.1-0.1-0.4-0.5 0.2 0.1 0.5 0.4c0 0.2 0 0.3-0.1 0.1z"/><path class="c" d="m142.6 161.2c0.9 1.2 2.1 2.4 1.9 2.4-0.1-0.1-0.7-0.2-1.3-0.5 1.8 2.3 3.6 4.1 3.8 4.4l-2.2-1.4c1 1.3 1.9 2.3 1.6 2.2-0.2-0.1-1.8-1.4-2.6-2l0.3 0.1c-0.2-0.2-2-2-3.9-4.3 0.7 0.2 1.2 0.4 1.4 0.4 0.2 0.1-1.1-1.2-1.9-2.3-0.9-1.2-1.5-2.1-1.5-2.1 0 0 1.2 0.4 1.4 0.5 0 0-2.7-2.5-2.6-5.2 0.2 0.2 0.8 0.7 1.1 1 0.2 0.2-0.2-1.2-0.2-1.2 0 0 0.1 0 0.4 0.4 0.2 0.3 1.2 1.2 1.7 1.6 0.3 2.4 2.5 4.4 2.5 4.4-0.1 0-1.4-0.5-1.4-0.5 0 0 0.6 0.9 1.5 2.1z"/><path class="c" d="m143.5 177c0.4 0.6 0.9 1.5 0.5 1.2-0.1-0.1-0.5-0.4-0.9-0.8q0 0 0 0-0.3-0.5-0.7-1.1c0.4 0.3 0.8 0.5 1.1 0.7z"/><path class="c" d="m140 194.2c0.1 0.3 0.1 0.6 0 0.4-0.1 0-0.4-0.4-0.8-0.8q-0.1-0.1-0.1-0.2 0.6 0.4 0.9 0.6z"/><path class="c" d="m138 166.9c-1.5-1.8-2-2.9-2.2-5.2 0.9 1.9 2.6 3.3 2.8 3.5 0.2 0.2-0.4-1.5-0.4-1.7 0 0 0.1 0.1 0.5 0.6q0.1 0.1 0.2 0.2c0.4 1.4 0.9 2.3 2 3.6 1.3 1.5 2.2 2.1 1.7 2-0.5-0.2-1.3-0.6-1.3-0.6 0 0-1-0.6 0.9 1.7 1.9 2.2 3.7 3.7 3.1 3.4-0.4-0.3-1.3-0.4-2-0.5 2.2 2.8 4.1 4.5 3.7 4.4-0.1 0-0.8-0.4-1.7-1 0.8 1.1 1.2 1.8 1 1.7-0.4-0.2-1.4-1.1-2.2-1.8q0 0 0 0c-0.3-0.4-1.9-2-3.7-4.4 0.6 0.2 1.5 0.3 2 0.5 0.6 0.4-1.2-1.1-3.1-3.4-1.9-2.2-0.9-1.6-0.9-1.6 0 0 0.8 0.4 1.2 0.5 0.5 0.2-0.3-0.4-1.6-1.9z"/><path class="c" d="m143 195.3c-0.1-0.1-0.5-0.4-1-0.7 0.3 0.6 0.4 0.9 0.3 0.9-0.5-0.1-1.4-0.8-2-1.3 0-0.2-0.4-0.6-0.8-1.3 0.5 0.3 0.8 0.3 0.8 0.3 0 0-1.9-2.5-2-2.6-0.1-0.2 0.6 0.2 0.8 0.2 0.1 0-0.5-0.6-1.5-1.8-0.9-1.3-1.1-2-1.1-2 0 0 0.8 0.3 1 0.3 0.2 0.1-0.3-0.3-1.3-1.2-0.4-0.5-0.9-1.2-1.4-1.9-0.4-0.9-0.7-1.8-0.9-2.6 0.9 1.4 2 2.9 2.2 3.2 0.4 0.5-0.1-1.6-0.1-1.6 0 0 0.9 1 1.6 1.9q0.1 0.1 0.1 0.2c0.5 0.7 1.1 1.4 1.5 1.8 0.9 0.9 1.5 1.3 1.3 1.3-0.2-0.1-1.1-0.3-1.1-0.3 0 0 0.2 0.7 1.2 1.9 0.9 1.2 1.5 1.8 1.4 1.8-0.1 0-0.9-0.4-0.8-0.2 0.2 0.2 2.1 2.6 2 2.7 0 0-0.3-0.1-0.8-0.3 0.8 1.1 1.1 1.6 0.6 1.3z"/><path class="c" d="m147.7 189.6c-0.5-0.2-2.6-1.5-2.9-1.7 0.1 0.2 0.9 1.4 0.6 1.2 0-0.1-0.3-0.3-0.7-0.6h0.1c0.2 0.1-0.4-0.5-1.4-1.4 0.8 0.3 1.3 0.6 1.5 0.7 0.4 0.1-0.6-0.9-1.9-2.4 0.7 0.2 1 0.3 1 0.3 0 0-1.5-1.7-1.7-1.9-0.1-0.1 0.7 0.2 1.1 0.3 0.4 0.1-0.9-0.7-2.6-2.7-1.6-2.1-1.7-2.2-1.7-2.2h0.8c0 0-0.1-0.4-1.4-1.6-0.5-0.5-1.3-1.3-1.9-2.1-0.4-1-0.8-1.8-1-2.5 0.8 0.9 2 1.8 2.4 2.4 0.6 0.8-0.3-1.3-0.4-1.5 0-0.1 0.6 0.4 1.3 1.1q0.3 0.7 0.6 1.5c0.7 0.8 1.4 1.6 1.9 2.1 1.3 1.3 1.5 1.6 1.5 1.6h-0.9c0 0 0.1 0.1 1.8 2.2 1.7 2 2.9 2.9 2.5 2.8-0.4-0.2-1.2-0.5-1-0.3 0.1 0.1 1.6 1.8 1.6 1.8 0 0-0.3 0-0.9-0.3 1.3 1.5 2.2 2.5 1.9 2.4-0.2-0.1-0.8-0.4-1.5-0.7 0.9 0.9 1.6 1.5 1.3 1.5z"/><path class="c" d="m140 154.8c0.1 0.3 0.2 0.5 0.2 0.6q0 0-0.2-0.2 0-0.2 0-0.4z"/><path class="c" d="m142.1 147q-0.2-0.7-0.4-1.3c0.1 0 0.4 0.4 0.8 0.8q0 0 0 0.1l0.2 0.3c0.2 0.4 0.7 1 0.5 0.9-0.1 0-0.6-0.4-1.1-0.8z"/><path class="c" d="m142.3 156.3c-0.1 0-0.6-0.5-1.2-1 0-0.3-0.2-1.1-0.2-1.1 0 0 0 0 0.3 0.4 0.1 0.1 0.3 0.3 0.5 0.5 0.4 0.8 0.8 1.3 0.6 1.2z"/><path class="c" d="m142.8 155.7c-0.1-0.2-0.2-0.4-0.2-0.5 0 0 0.2 0.1 0.4 0.3q0 0 0 0 0.4 0.5 0.5 0.6-0.2-0.1-0.7-0.4z"/><path class="c" d="m141.4 165.7c-0.1-0.5-0.3-1.1-0.3-1.2 0 0 0.2 0.2 0.6 0.6 0.2 0.3 0.6 0.7 1 1.1 0.6 0.7 0.9 1.2 0.8 1.1-0.2-0.1-1.2-1-2.1-1.6z"/><path class="c" d="m141.1 177.2c-0.3-0.2-1.3-1.3-2.2-2.2q-0.2-0.5-0.4-1c0.7 0.7 1.5 1.4 2.1 2 0.3 0.6 0.9 1.5 0.5 1.2z"/><path class="c" d="m143.3 178c-0.4-0.2-1.6-1.3-2.3-2-0.2-0.5-0.4-1-0.4-1.1 0-0.2 1.5 1.4 2.5 2.5q0 0 0 0c0.3 0.4 0.4 0.6 0.2 0.6z"/><path class="c" d="m143.5 177c-0.1-0.3-0.3-0.5-0.3-0.6-0.1-0.1 0.3 0.3 0.9 0.8q0 0 0 0 0.1 0.1 0 0.1-0.1-0.1-0.6-0.3z"/><path class="c" d="m140.3 194.2q0.1 0.2-0.2 0.1 0 0-0.1-0.1c0-0.1 0-0.2 0-0.3q0.1 0.1 0.3 0.3z"/><path class="c" d="m142.5 188c-0.2-0.1-2.2-1.6-3.3-2.3 0-0.5-0.3-1.4-0.3-1.4 0 0 2.7 3 2.8 3.1 0.2 0.2-0.2-1.2-0.2-1.2 0 0 2 1.4 3.1 2.3-0.6-0.3-2.5-1.5-2.7-1.6 0.1 0.1 0.9 1.3 0.6 1.1z"/><path class="a" d="m1143.9 0.3v702.8h-399l32.3-38.5 13.8 0.6-8.5-6.4 15.7-14.2 17.8-6.6 29.1-146.4 46.8-25.6 17.4-0.8 22.7-49.2 28.5-17.4v-10.1l16.3-54.1h17.9l-16.6-7.4c0 0-10.8-36.4-11.2-37.1-0.5-0.6 0.4-27.1 0.4-28l6.7-3c0 0-4.5-4.1-6.4-5.8q-0.1-0.1-0.2-0.2l-0.1-0.1q-0.1-0.1-0.2-0.2-0.2-0.2-0.2-0.2c-0.2-0.4 0.4-15.5 0.4-16.6 0-1 10.8-6.6 14.3-11 0.9-1 2.3-5.9 4.1-12.8q0.3-1.4 0.7-2.8 0.3-1.5 0.7-3.1c0.6-2.6 1.3-5.4 1.9-8.3q0.4-1.7 0.8-3.5 0.2-0.9 0.4-1.8 0.4-1.8 0.8-3.6 0.2-0.9 0.4-1.8 0.3-1.8 0.7-3.6 0.6-2.8 1.2-5.5 0.4-1.8 0.7-3.5c1.3-6 2.4-11.6 3.4-16.3 1.6-8.2 2.7-13.8 2.8-14.4q0-0.2 0.1-0.9 0-0.4 0-0.8 0.1-0.9 0.2-2.1c0-0.4 0.1-0.9 0.1-1.4q0-0.7 0.1-1.5l0.1-0.7q0-1.3 0.1-2.6c1-13.8 2.4-36.9 2.4-36.9l44.1-55.9 53.1-22.4z"/><path class="c" d="m1013.5 105.2l-1.4 37.8-12.8 52.4-12.3 31.6-16.4 10.5-3 15.6c-0.4-0.4-0.7-0.7-0.7-0.7-0.2-0.4 0.4-15.6 0.4-16.6 0-1 10.8-6.6 14.3-11 3.6-4.4 18.3-78.8 18.6-81 0.3-2.2 3.1-46.9 3.1-46.9z"/><path class="c" d="m994.7 334.4l-16.6-7.4c0 0-10.8-36.5-11.2-37.1-0.5-0.7 0.4-28 0.4-28l6.7-3 1.8 38.9-3.3-7.5 7.9 32.2z"/><path class="c" d="m945 416.8l27.5 5.8-37.4 1.3-20.1 43.3-13.2 0.9-40.2 31.4-8.8-3.8-24.5 122.9 13.4-48.9-8.3 64.9-29.4 22.7 12 3.3c0 0-18.9 17.9-16.3 22.7 2.6 4.9 18.9 19.8 18.9 19.8h-73.7l32.3-38.5 13.8 0.5-8.5-6.3 15.7-14.2 17.8-6.7 29.1-146.3 46.8-25.6 17.4-0.8 22.7-49.2 28.5-17.4v-10.1l16.3-54.1h5l-14 55.4v12.7z"/><path class="b" d="m1143.9 0.3v702.8h-247.7c0 0 5.9-11.2 8-12.3 2.1-1.1 44-16.1 49.2-22.6 5.2-6.5 26-54.6 29.1-73.4 3-18.8-7.9-71.7-4.4-76.9 0.9-1.3 2.8-3.7 5.2-6.6 7.3-8.6 19.4-21.6 21.4-22.4 2.2-0.9 18.2-1 27.4-1h5.9c4.3 0 20.8-20.5 23.4-24.1 2.6-3.5 5.7-13.2 5.9-16.4 0.2-3.2-2-60.5-3-62.3-0.9-1.7-5.5-0.5-9.2-1.7-3.6-1.2 23.5-69 23.9-74.3 0.4-5.3-12.9-33.2-14.7-36.7-1.7-3.5-9.8-8.8-9.8-6.1 0 2.8 0.4 28.4-0.4 33.7-0.9 5.3-4.4 13.5-5.5 12.9-1-0.6-25.1-61.9-25.6-66.6-0.4-4.7 3.3-12.1 4.2-15.3 0.8-3.2 4.1-16.5 4.9-23.5 0.9-7.1-1-11.2-2.3-16.7-1.3-5.6 1.3-55.8 1.9-58.2 0.7-2.3 17.2 9.4 18.9 11.8 1.7 2.3 7.6 30.2 7.6 30.2 0 0 6.7 3.2 11.5-7.3 4.8-10.6 28.1-27.5 28.3-31.2 0.2-3.8-3.7-63.9-3.7-63.9 0 0-14-7.5-14.7-9-0.6-1.6-0.6-12.8 0-13.5 0.7-0.6 23.6-11.6 23.6-11.6l-4.9-6.2q0 0 0.1-0.3c0.2-1.3 1.1-6.4 2.1-13z"/><path class="b" d="m1017.3 372.4c-0.7 0-12.6 7.7-12.2 10.3 0.3 2.7 7.8 26.7 7.8 27.3 0 0.7 4.9 52.2 2.4 58.2-2.4 5.9-10.7 19.9-13.5 21.5-2.9 1.6-49 17.4-50.6 27.1-1.6 9.7-28.2 106.2-33 110.3-4.8 4.1-11.7 17-20.6 17-8.9 0-15.6-7.9-28.4 2.7-12.8 10.5-43.2 56.3-43.2 56.3h46.4c0 0 25.2-13.2 29.1-17.6 3.9-4.4 37.3-47.6 38.3-48.2 1-0.7 4.6 2.6 4.6 2.6 0 0 25.5-120 27.8-122.9 2.3-2.8 2.6-3.3 20-8.3 17.4-5.1 41.7-9.1 40.2-25.3-1.5-16.3 3.3-34.8 2.1-43-1.1-8.1-7.8-56.6-8.8-58.6-0.9-2-8.4-9.4-8.4-9.4z"/><path class="b" d="m1027.2 300.1c0 0 13.5 30.6 13.5 32.8 0 2.2-20.7 16.1-20.7 16.1 0 0 5.7-16.5 6.4-27.3 0.6-10.8 0.8-21.6 0.8-21.6z"/><path class="b" d="m1047.4 58.4l18.5 3.9c0 0-0.1 60.3 0 61 0.2 0.7-6.8-2.4-6.8-3.3 0-0.9-11.7-61.6-11.7-61.6z"/><path class="c" d="m1013.5 105.2l33.9-64.2-44.1 55.9z"/><path class="a" d="m950.8 312.4c1.3 1.8 1.6 2.5 3.5 3.6 1.8 1.1 2.9 1.5 2.9 1.5l-1.1 0.1c0 0 0.9 0.5 2.3 1.1 1.4 0.6 3.8 1.1 3.5 1.1-0.2 0.1-1.2 0.1-1.8 0.1q0.3 0.2 0.7 0.4c1.2 0.3 2.9 0.7 2.8 0.8 0 0-0.3 0.1-0.7 0.1q1 0.5 2.2 0.9c-0.2 0.1-1.8 0.2-3.5 0.4 0.3 0.1 0.3 0.1 0.7 0.3 0.4 0.2 1.2 0.4 1 0.4-0.2 0.1-2 0-2.7-0.1-0.7-0.1-1.3-0.3-1.7-0.4h-0.2c0.5 0.3 1.8 1.1 1.7 1.1-0.4 0.1-2.6-0.4-2.5-0.3 2.2 1.9 5.7 2.5 5.6 2.5-0.4 0.2-2.2 0.3-2 0.4 0.2 0.2 2.5 0.9 3.6 1.3 1.2 0.3 1.6 0.4 1.4 0.4-0.1 0-0.7 0.2-1.5 0.3 2.2 0.8 3.7 1.1 3.7 1.1 0 0-1.1 0.1-2.4 0.2 1 0.4 1.7 0.6 1.6 0.7-0.2 0-3.5-0.1-3.4 0 0.1 0.1 1.2 0.6 1.2 0.6 0 0-2.2-0.1-2.7-0.2-0.5-0.2-0.5-0.2-0.5-0.2 0 0 1.2 0.9 0.8 0.9-0.3 0-1.1 0-1.4-0.1 1.6 2.2 5.2 2.4 5.2 2.4-0.1 0.1-1.4 0.5-1.4 0.5 0 0 1.1 0.4 2.5 0.7 1.4 0.4 3.2 0.6 3 0.7-0.2 0.1-0.7 0.3-1.4 0.4 3.1 0.8 5.8 1.1 5.8 1.1l-2.6 0.3c1.5 0.4 2.9 0.7 2.6 0.7-0.2 0.1-3.9 0-3.7 0.1 0.2 0.1 1.6 0.6 1.4 0.7-0.2 0.1-2.6-0.2-3.4-0.3-0.8-0.2-0.8-0.2-0.8-0.2 0 0 1.7 1.2 1.4 1.2-0.3-0.1-2.5-0.1-4.4-1 1.6 1.6 2.7 2.2 5 2.6 2 0.4 3 0.4 2.5 0.5-0.5 0.2-1.3 0.4-1.3 0.4 0 0-1.2 0.2 1.7 0.7 2.9 0.6 5.2 0.6 4.6 0.7-0.6 0.1-1.3 0.6-1.9 0.9 3.4 0.9 6 1 5.6 1.2-0.1 0-0.9 0.1-1.9 0.3 1.2 0.3 2.1 0.6 1.8 0.7-0.8 0.2-4.3-0.3-4-0.1 0.2 0.1 2.4 0.8 1.7 0.9-0.6 0-4.9-0.7-4.7-0.5 0.2 0.2 2.2 1.2 1.2 1-0.7-0.2-2.1-0.2-3.4-0.4 0.6 0.4 1.4 0.9 2.4 1.4 1 0.2 2 0.3 2.8 0.4 1.7 0.2 2.1 0.4 2.1 0.4l-0.7 0.5c0 0 0.1 0 2.7 0.6 2.6 0.5 4.1 0.4 3.7 0.5-0.3 0.2-1.2 0.5-1 0.5 0.2 0 2.5 0.4 2.5 0.4 0 0-0.3 0.2-0.9 0.4 1.9 0.3 3.3 0.5 2.9 0.6-0.2 0.1-0.8 0.2-1.6 0.4 1.3 0.2 2.2 0.3 2 0.3-0.6 0.2-3.4 0.5-3.4 0.5 0 0 1.7 0.5 1.3 0.6-0.4 0-4.9 0.2-4.9 0.2 0 0 1.2 0.8 1 0.8-0.2 0-4.2-0.7-4.2-0.7 0 0 1.7 1.2 1.1 1.1-0.4-0.1-2.2-0.6-3.8-1.1 0.7 0.5 1.5 1 2.4 1.5 0.8 0.2 1.7 0.5 2.3 0.5 1.3 0.2 2 0.2 1.8 0.2-0.2 0.1-1 0.4-1 0.4 0 0 0.5 0.5 2.1 0.8 1.5 0.4 2.3 0.5 2.2 0.6-0.1 0-0.9 0.2-0.7 0.3 0.2 0 3.3 0.8 3.2 0.8 0 0-0.2 0.2-0.8 0.3 1.3 0.4 1.9 0.5 1.3 0.6-0.2 0.1-0.7 0.1-1.2 0.1 0.6 0.3 0.9 0.5 0.7 0.5-0.6 0.3-2.7 0.3-2.7 0.3 0 0 0.7 0.5 0.4 0.5-0.2 0-2.9-0.4-2.9-0.4 0 0 0.5 0.9 0.2 0.7-0.3-0.1-3.4-1.1-3.4-1.1l-0.4 0.6c1.8 1 3.5 1.9 3.3 1.8-0.1 0-0.9 0.1-2 0.3 0.6 0.3 0.9 0.5 0.7 0.5-0.5 0.2-3.1 0.3-3.1 0.3 0 0 0.6 0.6 0.1 0.6-0.5 0-4.1-0.3-4.1-0.3 0 0 0.5 0.9 0.1 0.9-0.3 0-3.4-0.9-3.4-0.9 0 0 0.3 1.1 0.1 1-0.1 0-0.3-0.1-0.7-0.3l3.3 9.4-1.6 0.6-1.6 0.6-3.3-9.5c-0.1 0.3-0.2 0.6-0.3 0.7-0.1 0.2-0.5-0.9-0.5-0.9 0 0-1.9 2.6-2.2 2.9-0.3 0.2-0.4-0.9-0.4-0.9 0 0-2.7 2.5-3 2.9-0.4 0.3-0.4-0.5-0.4-0.5 0 0-2.1 1.5-2.6 1.7-0.2 0.1 0-0.3 0.2-0.9-0.9 0.6-1.6 1-1.7 1.1-0.1 0.1 0.7-1.7 1.5-3.5l-0.7-0.3c0 0-1.8 2.8-1.9 3.1-0.2 0.2-0.4-0.8-0.4-0.8 0 0-1.8 2-2 2.2-0.2 0.2 0.1-0.7 0.1-0.7 0 0-1.7 1.4-2.4 1.5-0.1 0.1 0-0.3 0.3-0.9-0.5 0.4-0.8 0.6-1 0.8-0.5 0.2-0.2-0.2 0.6-1.4-0.5 0.3-0.8 0.3-0.8 0.3-0.1 0.1 1.9-2.5 2-2.6 0.1-0.2-0.6 0.2-0.8 0.2-0.1 0 0.5-0.6 1.5-1.8 0.9-1.3 1.1-2 1.1-2 0 0-0.8 0.3-1 0.3-0.2 0.1 0.3-0.3 1.2-1.2 0.5-0.5 1-1.2 1.5-1.9 0.4-1 0.7-1.9 0.9-2.6-0.9 1.3-2.1 2.9-2.3 3.2-0.4 0.5 0.2-1.6 0.2-1.6 0 0-2.7 3-2.8 3.2-0.2 0.1 0.2-1.3 0.2-1.3 0 0-3.6 2.7-3.9 2.9-0.3 0.2 0.6-1.2 0.6-1.2 0 0-2.3 1.5-2.9 1.7-0.2 0.1 0.4-0.5 1.3-1.5-0.7 0.4-1.3 0.7-1.5 0.8-0.3 0.1 0.6-0.9 1.9-2.4-0.6 0.2-0.9 0.2-0.9 0.2 0 0 1.5-1.6 1.7-1.8 0.1-0.1-0.7 0.2-1.1 0.3-0.4 0.1 0.9-0.7 2.5-2.8 1.7-2 1.8-2.1 1.8-2.1h-0.8c0 0 0.1-0.4 1.4-1.6 0.5-0.5 1.2-1.3 1.9-2.1 0.4-1 0.7-1.9 1-2.5-0.9 0.9-2 1.8-2.4 2.3-0.6 0.9 0.3-1.2 0.3-1.4 0.1-0.3-2.9 2.9-3.4 3.3-0.5 0.4 0.7-1.5 0.8-1.8 0.1-0.3-2.3 2.3-3 2.6-0.3 0.1 0.2-0.7 0.9-1.7-0.9 0.5-1.5 0.9-1.7 1-0.4 0.1 1.5-1.7 3.7-4.5-0.7 0.2-1.6 0.3-2 0.5-0.6 0.4 1.2-1.1 3.1-3.4 1.9-2.2 0.9-1.6 0.9-1.6 0 0-0.8 0.3-1.3 0.5-0.4 0.2 0.4-0.4 1.7-1.9 1.5-1.8 2-3 2.2-5.2-0.9 1.9-2.6 3.3-2.8 3.5-0.2 0.2 0.4-1.8 0.4-1.8 0 0 0 0.1-0.5 0.7-0.6 0.6-2.3 2.3-2.5 2.3-0.3 0 0.5-1.2 0.7-1.4 0.1-0.2-2.8 2.2-3 2.3-0.2 0.1 0.6-1 1.6-2.2l-2.2 1.3c0 0 1.9-1.9 3.8-4.4-0.6 0.3-1.1 0.5-1.3 0.5-0.2 0.1 1-1.2 1.9-2.3 0.9-1.2 1.5-2.1 1.5-2.1 0 0-1.3 0.4-1.4 0.4 0 0 2.7-2.4 2.6-5.1-0.2 0.2-0.8 0.7-1.1 0.9-0.2 0.3 0.2-1.2 0.2-1.2 0 0-0.1 0.1-0.4 0.5-0.3 0.4-2 1.8-2 1.8 0 0 0.6-1.1 0.6-1.2 0-0.2-2.5 2.1-2.6 2.1-0.2 0.1 0.3-0.6 0.8-1.5-1.1 0.7-2.1 1.3-2.1 1.3 0 0 1-1.1 2.3-3.2-0.7 0.4-1.3 0.7-1.4 0.8-0.2 0.1 0.1-0.3 0.8-1.2 0.7-1 2-3 2.1-3.3 0.1-0.2-1.5 0.9-1.8 1-0.1 0 2.2-2.6 2.8-5.6 0 0-1.4 1.7-1.8 1.9 0 0.1 0.4-1.3 0.6-1.9l-0.1 0.1c-0.3 0.3-0.6 0.9-1.1 1.4-0.5 0.5-1.8 1.6-2 1.7-0.2 0.1 0.3-0.5 0.5-0.9 0.2-0.4 0.2-0.4 0.3-0.7-1.4 0.9-2.7 1.8-2.9 1.9q0.7-1.1 1.2-2.1c-0.4 0.2-0.7 0.4-0.7 0.4-0.1 0 1-1.4 1.7-2.4q0.2-0.4 0.4-0.7c-0.6 0.3-1.3 0.9-1.6 1-0.2 0.2 1.4-1.7 2.1-3.1 0.7-1.3 1.1-2.3 1.1-2.3l-0.9 0.7c0 0 0.6-1 1.3-2.9 0.8-2.1 0.6-2.9 0.5-5.1z"/><path class="c" d="m951.4 326.3q0 0 0 0c0.1-0.1 0.1-0.2 0.2-0.3q-0.5 0.3-1 0.6c-0.1 0.4-0.2 0.7-0.2 0.7 0.2-0.1 0.6-0.6 1-1z"/><path class="c" d="m952.3 334.9v-0.1q0.1-0.1 0.1-0.2c-0.5 0.3-0.9 0.6-1.3 0.8-0.1 0.3-0.3 0.7-0.3 0.8 0.1-0.1 0.9-0.8 1.5-1.3z"/><path class="c" d="m953.3 316.4q0.1-0.4 0.3-0.8c-1.3-0.9-1.7-1.7-2.8-3.2 0.1 2.2 0.3 3-0.5 5.1-0.7 1.9-1.3 2.9-1.3 2.9l0.9-0.7c0 0-0.5 1-1.1 2.3-0.6 1.2-1.9 2.9-2.1 3.1 0.3-0.1 1-0.7 1.5-1q-0.1 0.3-0.3 0.7c-0.7 0.9-1.7 2.3-1.7 2.4 0 0 0.3-0.2 0.7-0.4q-0.5 1-1.2 2.1c0.2-0.1 1.5-1 2.9-1.9-0.1 0.3-0.1 0.3-0.3 0.7-0.2 0.4-0.7 1-0.5 0.9 0.1 0 0.6-0.4 1.1-0.8q-0.2 0.1-0.2 0.1 0.6-1.1 1.1-2.1c-0.4 0.2-0.6 0.3-0.7 0.3 0 0 1-1.4 1.8-2.4l0.3-0.7c-0.5 0.4-1.3 1-1.5 1.1 0.1-0.3 1.4-1.9 2-3.1 0.7-1.3 1.2-2.3 1.2-2.3l-1 0.7c0 0 0.6-1.1 1.4-3z"/><path class="c" d="m952.5 345.4c-0.1 0.4-0.2 0.7-0.1 0.6 0-0.1 0.3-0.3 0.6-0.6 0.2-0.3 0.3-0.5 0.4-0.6 0-0.1-0.4 0.2-0.9 0.6z"/><path class="c" d="m947.5 336.9c0.2-0.1 1-0.7 2-1.3-0.5 0.9-1 1.6-0.8 1.5 0.1 0 1.5-1.3 2.2-1.8q0 0 0-0.1c0.4-0.5 1-1.4 1.7-2.5-0.7 0.4-1.2 0.7-1.4 0.8-0.1 0.1 0.2-0.3 0.8-1.3 0.7-0.9 2-3 2.1-3.2 0.1-0.2-1.4 0.8-1.8 0.9 0 0 2.2-2.6 2.8-5.5 0 0-1.4 1.6-1.7 1.9-0.1 0 0.4-1.4 0.5-1.9l-0.1 0.1c-0.2 0.3-0.5 0.8-1 1.3-0.2 0.3-0.6 0.6-1 0.9-0.8 2.3-2.4 4.2-2.4 4.3 0.3-0.1 1.9-1.2 1.8-1-0.1 0.3-1.4 2.3-2.1 3.3-0.7 1-1 1.3-0.8 1.2 0.1-0.1 0.7-0.4 1.4-0.8-1.1 1.9-2 3-2.2 3.2z"/><path class="c" d="m951.2 346q0.4-0.5 0.8-1.2l-1.6 1c-0.2 0.3-0.9 1.4-0.6 1.4 0.1 0 0.8-0.6 1.4-1.2z"/><path class="c" d="m952.9 355.7c-0.1 0.5-0.2 0.9 0.1 0.4q0.1-0.1 0.3-0.4c0.2-0.2 0.3-0.5 0.4-0.5 0-0.1-0.3 0.1-0.8 0.5z"/><path class="c" d="m954.8 365.6q0.1-0.2 0.4-0.6-0.2 0.1-0.5 0.4c0 0.2 0 0.3 0.1 0.2z"/><path class="c" d="m951.3 340.9c-0.9 1.2-2.1 2.5-1.9 2.4 0.2 0 0.7-0.2 1.3-0.5-1.8 2.4-3.6 4.2-3.8 4.4l2.2-1.3c-1 1.2-1.8 2.3-1.6 2.2 0.2-0.1 1.9-1.5 2.6-2.1l-0.3 0.2c0.3-0.2 2.1-2.1 3.9-4.4-0.7 0.3-1.2 0.4-1.4 0.5-0.2 0 1.1-1.2 1.9-2.4 0.9-1.1 1.5-2 1.5-2 0 0-1.2 0.4-1.3 0.4 0 0 2.6-2.5 2.5-5.1-0.1 0.2-0.8 0.7-1.1 0.9-0.2 0.3 0.2-1.2 0.2-1.2 0 0-0.1 0-0.4 0.4-0.2 0.4-1.2 1.2-1.7 1.6v0.1c-0.3 2.3-2.5 4.4-2.5 4.4 0.1-0.1 1.4-0.5 1.4-0.5 0 0-0.6 0.9-1.5 2z"/><path class="c" d="m950.4 356.8c-0.4 0.6-0.9 1.4-0.5 1.2 0.1-0.1 0.5-0.4 0.9-0.8q0 0 0-0.1 0.3-0.4 0.7-1c-0.4 0.2-0.8 0.5-1.1 0.7z"/><path class="c" d="m953.9 374c-0.1 0.2-0.1 0.5 0 0.4 0.1-0.1 0.5-0.5 0.9-0.9q0-0.1 0-0.2-0.6 0.5-0.9 0.7z"/><path class="c" d="m956 346.6c1.4-1.7 1.9-2.9 2.2-5.2-1 2-2.7 3.4-2.9 3.6-0.1 0.1 0.4-1.6 0.5-1.8-0.1 0-0.2 0.2-0.6 0.6q-0.1 0.1-0.2 0.3c-0.3 1.3-0.9 2.3-2 3.6-1.3 1.5-2.1 2.1-1.7 1.9 0.5-0.1 1.3-0.5 1.3-0.5 0 0 1-0.6-0.9 1.6-1.9 2.3-3.7 3.8-3.1 3.4 0.4-0.2 1.3-0.3 2-0.5-2.2 2.8-4.1 4.6-3.7 4.5 0.2-0.1 0.8-0.5 1.7-1-0.7 1-1.2 1.8-0.9 1.7 0.4-0.2 1.3-1.1 2.1-1.8q0 0 0-0.1c0.3-0.4 1.9-2 3.7-4.3-0.6 0.2-1.5 0.2-2 0.5-0.6 0.3 1.2-1.2 3.1-3.4 1.9-2.2 0.9-1.6 0.9-1.6 0 0-0.7 0.3-1.2 0.5-0.5 0.2 0.3-0.4 1.7-2z"/><path class="c" d="m950.9 375.1c0.2-0.2 0.5-0.4 1-0.8-0.3 0.6-0.4 1-0.3 0.9 0.5-0.1 1.5-0.8 2-1.2 0.1-0.2 0.4-0.6 0.8-1.3-0.5 0.2-0.7 0.3-0.8 0.3 0-0.1 1.9-2.5 2-2.7 0.2-0.1-0.6 0.2-0.7 0.3-0.2 0 0.5-0.6 1.4-1.9 1-1.2 1.1-1.9 1.1-1.9 0 0-0.8 0.2-1 0.3-0.2 0.1 0.4-0.4 1.3-1.3 0.4-0.4 0.9-1.1 1.4-1.8 0.4-1 0.7-1.9 1-2.6-1 1.3-2.1 2.8-2.3 3.1-0.4 0.5 0.1-1.5 0.1-1.5 0 0-0.8 1-1.6 1.9q-0.1 0-0.1 0.1c-0.5 0.7-1 1.4-1.5 1.9-0.9 0.9-1.4 1.3-1.2 1.2 0.2 0 1-0.3 1-0.3 0 0-0.2 0.7-1.1 1.9-1 1.3-1.6 1.9-1.5 1.9 0.2 0 0.9-0.4 0.8-0.2-0.1 0.1-2 2.6-2 2.6 0 0 0.3 0 0.8-0.3-0.8 1.2-1.1 1.6-0.6 1.4z"/><path class="c" d="m946.2 369.3c0.5-0.2 2.6-1.5 2.9-1.6-0.1 0.2-0.9 1.3-0.6 1.1 0.1 0 0.3-0.3 0.7-0.5-0.3 0.1 0.4-0.6 1.3-1.5-0.8 0.4-1.3 0.6-1.5 0.7-0.4 0.2 0.6-0.8 1.9-2.4-0.6 0.3-1 0.3-1 0.3 0 0 1.5-1.7 1.7-1.8 0.2-0.1-0.7 0.2-1.1 0.3-0.4 0.1 0.9-0.7 2.6-2.8 1.7-2 1.7-2.2 1.7-2.2l-0.8 0.1c0 0 0.2-0.4 1.4-1.6 0.6-0.6 1.3-1.4 1.9-2.1 0.5-1 0.8-1.9 1-2.6-0.8 1-2 1.8-2.4 2.4-0.6 0.8 0.3-1.2 0.4-1.5 0-0.1-0.6 0.5-1.3 1.2q-0.3 0.7-0.6 1.5c-0.7 0.8-1.4 1.6-1.9 2.1-1.3 1.2-1.4 1.6-1.4 1.6h0.8c0 0-0.1 0.1-1.8 2.1-1.6 2.1-2.9 2.9-2.5 2.8 0.4-0.1 1.2-0.4 1-0.3-0.1 0.2-1.6 1.8-1.6 1.8 0 0 0.3 0 0.9-0.2-1.3 1.5-2.2 2.5-1.9 2.4 0.2-0.1 0.8-0.4 1.6-0.8-1 1-1.6 1.6-1.4 1.5z"/><path class="c" d="m954 334.6c-0.2 0.2-0.3 0.4-0.3 0.6q0.1-0.1 0.2-0.2v-0.1q0.1-0.1 0.1-0.3z"/><path class="c" d="m951.8 326.7q0.3-0.6 0.4-1.2c0 0-0.4 0.4-0.8 0.8q0 0 0 0l-0.2 0.4c-0.2 0.4-0.7 1-0.5 0.9 0.1-0.1 0.6-0.5 1.1-0.9z"/><path class="c" d="m950.6 326.6c0.1-0.4 0.3-0.9 0.4-1.2l-0.1 0.1c-0.3 0.3-0.6 0.9-1.1 1.4-0.2 0.2-0.6 0.5-0.9 0.9 0.3-0.3 1-0.7 1.7-1.2z"/><path class="c" d="m951.6 336.1c0.1 0 0.6-0.5 1.2-1 0-0.3 0.3-1.2 0.3-1.2 0 0-0.1 0.1-0.4 0.5-0.1 0.1-0.2 0.3-0.4 0.4v0.1c-0.5 0.7-0.9 1.2-0.7 1.2z"/><path class="c" d="m951.1 335.4c0.1-0.2 0.2-0.4 0.2-0.4 0-0.1-0.2 0.1-0.4 0.2q0 0.1 0 0.1-0.4 0.4-0.5 0.6 0.2-0.1 0.7-0.5z"/><path class="c" d="m955 344.1q0.1-0.7 0.2-1.6c-0.6 1.3-1.6 2.3-2.2 2.9-0.2 0.4-0.4 0.8-0.3 0.8 0.2-0.1 1.6-1.4 2.3-2.1z"/><path class="c" d="m952.5 345.4c0.1-0.4 0.3-1 0.3-1.2 0 0.1-0.2 0.2-0.5 0.7-0.3 0.2-0.7 0.6-1.1 1.1-0.6 0.7-0.9 1.1-0.8 1.1 0.2-0.1 1.3-1 2.1-1.7z"/><path class="c" d="m952.8 356.9c0.3-0.2 1.4-1.2 2.2-2.1q0.2-0.6 0.4-1c-0.7 0.7-1.5 1.4-2.1 1.9-0.3 0.7-0.8 1.5-0.5 1.2z"/><path class="c" d="m955.2 365q0.2-0.1 0.2-0.1c0 0-0.5 1.4-0.3 1.3 0.1-0.1 0.6-0.7 1.2-1.3 0.3-0.9 0.6-1.8 0.8-2.5-0.6 0.9-1.4 2-1.9 2.6z"/><path class="c" d="m950.6 357.7c0.4-0.2 1.6-1.3 2.3-2 0.2-0.4 0.4-0.9 0.4-1.1 0.1-0.1-1.5 1.5-2.5 2.5q0 0.1 0 0.1c-0.3 0.4-0.4 0.6-0.2 0.5z"/><path class="c" d="m950.4 356.8c0.2-0.3 0.3-0.5 0.3-0.6 0.1-0.1-0.3 0.2-0.9 0.7q0 0.1 0 0.1 0 0.1 0.1 0 0.1 0 0.5-0.2z"/><path class="c" d="m953.6 374q-0.1 0.2 0.2 0 0 0 0.1 0c0-0.1 0-0.3 0-0.3q0 0.1-0.3 0.3z"/><path class="c" d="m951.4 367.8c0.2-0.2 2.2-1.6 3.3-2.4 0-0.4 0.3-1.4 0.3-1.4 0 0-2.7 3-2.8 3.2-0.2 0.1 0.2-1.3 0.2-1.3 0 0-2 1.5-3.1 2.3 0.6-0.3 2.5-1.4 2.8-1.6-0.2 0.2-1 1.4-0.7 1.2z"/><path class="a" d="m876.2 397.7c1 2.5 1.2 3.5 3.3 5.4 1.9 1.7 3 2.6 3 2.6l-1.3-0.3c0 0 1 0.9 2.5 2 1.5 1.2 4.3 2.4 4 2.4-0.3 0-1.5-0.3-2.3-0.4q0.4 0.3 0.7 0.6c1.4 0.7 3.4 1.7 3.3 1.8-0.1 0-0.4 0-1 0q1.2 0.8 2.5 1.7c-0.3 0-2.2-0.3-4.4-0.6 0.3 0.3 0.3 0.3 0.8 0.6 0.5 0.4 1.3 0.8 1.1 0.8-0.3 0-2.4-0.5-3.3-0.9-0.8-0.3-1.4-0.7-1.9-1h-0.2c0.5 0.5 1.8 1.9 1.7 1.8-0.5 0-3.1-1.2-3-1.1 2.3 3 6.3 4.7 6.1 4.7-0.4 0.1-2.7-0.3-2.5-0.1 0.2 0.3 2.8 1.8 4.1 2.5 1.3 0.8 1.8 1 1.6 1-0.2 0-1 0-2-0.1 2.5 1.6 4.3 2.4 4.3 2.4 0 0-1.4-0.2-3.1-0.4 1.1 0.7 2 1.2 1.8 1.3-0.2 0-4.2-1.2-4.1-1 0.1 0.1 1.3 1.1 1.3 1.1 0 0-2.7-0.7-3.2-1-0.6-0.4-0.7-0.3-0.7-0.3 0 0 1.3 1.4 0.8 1.2-0.4-0.1-1.4-0.3-1.7-0.4 1.4 3 5.7 4.4 5.7 4.4-0.2 0-1.8 0.2-1.8 0.2 0 0 1.2 0.7 2.8 1.5 1.6 0.9 3.7 1.6 3.5 1.7-0.3 0-1 0.1-1.8 0.1 3.5 1.8 6.7 2.9 6.7 2.9l-3.2-0.3c1.7 0.9 3.3 1.6 3 1.6-0.4 0-4.8-1.1-4.6-1 0.2 0.2 1.8 1.2 1.5 1.2-0.2 0.1-3.1-0.9-4-1.3-1-0.3-1.1-0.4-1.1-0.4 0 0 1.8 1.9 1.5 1.8-0.3-0.1-3-0.8-5.1-2.5 1.5 2.5 2.7 3.6 5.3 4.7 2.3 1 3.6 1.2 3 1.3-0.7 0.1-1.8 0.1-1.8 0.1 0 0-1.4-0.1 2 1.4 3.3 1.4 6.2 2.2 5.3 2.1-0.6 0-1.7 0.4-2.5 0.5 3.9 2 7.1 2.9 6.5 3-0.2 0.1-1.1 0-2.4-0.1 1.4 0.7 2.4 1.3 2 1.3-1 0.1-5.2-1.5-4.9-1.2 0.3 0.3 2.7 1.7 1.9 1.6-0.8-0.2-5.8-2.2-5.7-1.9 0.2 0.3 2.4 2.1 1.2 1.5-0.7-0.4-2.5-0.8-4-1.4 0.7 0.6 1.5 1.4 2.5 2.3 1.2 0.5 2.4 1 3.3 1.3 2.1 0.7 2.5 1.1 2.5 1.1l-0.9 0.4c0 0 0.1 0.1 3.1 1.5 3 1.4 4.9 1.6 4.4 1.7-0.6 0.1-1.6 0.2-1.4 0.3 0.3 0.1 2.9 1.1 2.9 1.1 0 0-0.4 0.2-1.2 0.3 2.3 1 3.9 1.6 3.4 1.6-0.3 0-1 0-2.1 0 1.6 0.6 2.6 0.9 2.3 1-0.7 0-4.2-0.4-4.2-0.4 0 0 1.9 1.1 1.4 1-0.5-0.1-6-1.1-6-1.1 0 0 1.2 1.4 0.9 1.3-0.2-0.1-4.9-2.1-4.9-2.1 0 0 1.8 2.1 1.1 1.7-0.4-0.2-2.5-1.3-4.3-2.3 0.6 0.7 1.5 1.5 2.4 2.4 1 0.6 2 1.1 2.7 1.3 1.5 0.5 2.4 0.7 2.1 0.8-0.3 0-1.3 0.1-1.3 0.1 0 0 0.5 0.7 2.3 1.6 1.7 0.9 2.8 1.2 2.6 1.3-0.1 0.1-1.2 0.1-1 0.2 0.3 0.1 3.9 1.9 3.7 1.9 0 0-0.3 0.1-1 0.1 1.5 0.9 2.1 1.2 1.4 1.2-0.3 0-0.8-0.1-1.6-0.3 0.7 0.5 1 0.8 0.8 0.9-0.8 0.2-3.4-0.5-3.4-0.5 0 0 0.7 0.9 0.4 0.8-0.3-0.1-3.4-1.4-3.4-1.4 0 0 0.3 1.2 0 1-0.4-0.2-3.9-2.3-3.9-2.3l-0.6 0.7c1.9 1.6 3.8 3.2 3.5 3.1-0.1-0.1-1.1-0.2-2.5-0.3 0.6 0.5 1 0.8 0.7 0.9-0.6 0-3.8-0.6-3.8-0.6 0 0 0.5 1-0.1 0.8-0.6-0.2-5-1.6-5-1.6 0 0 0.4 1.3 0 1.2-0.5-0.1-4-2-4-2 0 0 0.2 1.4-0.2 1.2 0 0-0.3-0.3-0.6-0.6l1.4 12.5-2.2 0.2-2.1 0.3-1.4-12.5c-0.2 0.4-0.4 0.7-0.5 0.7-0.3 0.3-0.4-1.2-0.4-1.2 0 0-3 2.7-3.5 2.9-0.4 0.2-0.3-1.1-0.3-1.1 0 0-3.9 2.3-4.5 2.6-0.5 0.3-0.2-0.7-0.2-0.7 0 0-3 1.2-3.7 1.3-0.2 0.1 0-0.3 0.5-0.9-1.3 0.4-2.2 0.6-2.4 0.8-0.2 0.1 1.3-1.9 2.8-3.9l-0.7-0.5c0 0-3 2.9-3.3 3.2-0.2 0.2-0.2-1-0.2-1 0 0-2.8 1.9-3.1 2.1-0.2 0.1 0.3-0.9 0.3-0.9 0 0-2.4 1.3-3.3 1.2-0.2 0 0.1-0.4 0.6-1-0.7 0.3-1.2 0.5-1.4 0.6-0.7 0.2-0.2-0.3 1.1-1.4-0.7 0.1-1 0.1-1.1 0.1-0.1 0 3-2.5 3.2-2.7 0.2-0.2-0.8 0.1-1 0.1-0.2-0.1 0.8-0.6 2.3-1.9 1.5-1.2 1.9-2 1.9-2 0 0-1.1 0-1.3 0.1-0.3 0 0.5-0.4 1.9-1.2 0.6-0.4 1.5-1.1 2.3-1.8 0.7-1.1 1.3-2.1 1.8-3-1.5 1.4-3.3 2.9-3.7 3.2-0.6 0.5 0.7-1.8 0.7-1.8 0 0-4.1 2.9-4.4 3.1-0.2 0.1 0.7-1.5 0.7-1.5 0 0-5.2 2.2-5.6 2.4-0.4 0.2 1.1-1.2 1.1-1.2 0 0-3.3 1.1-4 1.2-0.3 0 0.6-0.6 2-1.4-1 0.2-1.7 0.4-2 0.4-0.5 0.1 1-0.9 3-2.3-0.9 0.1-1.2 0-1.2 0 0 0 2.2-1.6 2.5-1.8 0.2-0.1-0.9 0.1-1.4 0.1-0.5 0 1.2-0.6 3.9-2.6 2.6-2.1 2.7-2.2 2.7-2.2l-1-0.2c0 0 0.3-0.4 2.2-1.6 0.8-0.5 1.9-1.2 2.9-2 0.8-1.1 1.4-2 1.9-2.8-1.3 0.9-2.9 1.6-3.6 2.2-1 0.9 0.7-1.4 0.9-1.7 0.1-0.3-4.4 2.8-5.2 3.1-0.7 0.3 1.3-1.6 1.5-2 0.3-0.3-3.5 2.2-4.4 2.3-0.4 0.1 0.4-0.7 1.6-1.8-1.2 0.5-2.1 0.8-2.3 0.8-0.6 0 2.3-1.6 5.7-4.4-0.8 0-2-0.2-2.6 0-0.8 0.3 1.8-1.1 4.8-3.3 2.9-2.2 1.5-1.7 1.5-1.7 0 0-1 0.2-1.7 0.3-0.6 0.1 0.6-0.4 2.6-1.9 2.3-1.7 3.3-3 4.2-5.8-1.7 2.2-4.2 3.4-4.5 3.6-0.2 0.2 1.1-2.1 1.1-2.1 0 0-0.1 0.1-0.9 0.6-0.8 0.6-3.4 2.2-3.7 2.2-0.3 0 1-1.3 1.2-1.5 0.2-0.2-3.9 1.9-4.2 1.9-0.4 0.1 1-0.9 2.6-2.2l-3.1 1c0 0 2.8-1.8 5.9-4.3-0.9 0.2-1.6 0.3-1.8 0.3-0.2 0 1.6-1.2 3-2.4 1.4-1.2 2.4-2.1 2.4-2.1 0 0-1.6 0.2-1.8 0.2 0 0 3.9-2.3 4.6-5.5-0.3 0.1-1.2 0.5-1.6 0.8-0.4 0.2 0.5-1.5 0.5-1.5 0 0-0.1 0-0.5 0.5-0.5 0.4-2.9 1.7-2.9 1.7 0 0 0.9-1.2 1-1.4 0-0.2-3.6 1.9-3.8 1.9-0.2 0 0.5-0.7 1.4-1.6-1.6 0.6-2.9 1-2.9 1 0 0 1.5-1.1 3.6-3.3-0.9 0.3-1.7 0.5-1.9 0.6-0.2 0.1 0.3-0.3 1.4-1.3 1.1-1 3.2-3.1 3.4-3.3 0.2-0.3-2 0.5-2.4 0.6-0.2 0 3.4-2.6 4.9-6 0.1 0-2.1 1.6-2.6 1.8-0.2 0.1 0.8-1.5 1.2-2.2l-0.2 0.1c-0.4 0.4-0.9 0.9-1.7 1.4-0.7 0.5-2.7 1.5-2.9 1.6-0.3 0 0.5-0.5 0.8-1 0.4-0.5 0.4-0.5 0.7-0.8-2 0.8-3.9 1.5-4.1 1.6q1-1.2 2-2.3c-0.5 0.2-0.9 0.3-1 0.2-0.1 0 1.6-1.4 2.8-2.4q0.3-0.4 0.6-0.7c-0.7 0.3-1.8 0.7-2.1 0.8-0.4 0.1 2.1-1.7 3.3-3.2 1.2-1.4 2.1-2.5 2.1-2.5l-1.3 0.6c0 0 0.9-1.1 2.4-3.2 1.6-2.3 1.5-3.4 2-6z"/><path class="c" d="m873 414.8q0 0 0 0c0.1-0.2 0.2-0.2 0.3-0.4q-0.7 0.3-1.3 0.5c-0.3 0.5-0.5 0.8-0.4 0.8 0.2-0.1 0.8-0.5 1.4-0.9z"/><path class="c" d="m871.7 425.4q0.1-0.1 0.3-0.3c-0.7 0.3-1.4 0.5-1.9 0.7-0.2 0.3-0.5 0.7-0.6 0.8 0.2-0.1 1.4-0.7 2.2-1.2z"/><path class="c" d="m878.1 403.2q0.3-0.5 0.6-0.9c-1.3-1.5-1.6-2.5-2.5-4.6-0.5 2.6-0.5 3.7-2 6-1.5 2.1-2.4 3.2-2.4 3.2l1.3-0.6c0 0-0.9 1.1-2.1 2.5-1 1.3-3.1 2.9-3.3 3.2 0.3-0.1 1.4-0.5 2.1-0.8q-0.3 0.3-0.6 0.7c-1.2 1-2.8 2.4-2.8 2.4 0.1 0.1 0.5 0 1-0.2q-0.9 1.1-2 2.3c0.2-0.1 2.1-0.8 4.1-1.6-0.3 0.3-0.3 0.3-0.6 0.8-0.4 0.5-1.2 1-0.9 1 0.1 0 0.8-0.4 1.5-0.8q-0.2 0.1-0.3 0.1 1.1-1.2 2-2.2c-0.5 0.1-0.8 0.2-0.9 0.2 0-0.1 1.6-1.4 2.8-2.4l0.6-0.8c-0.8 0.3-1.8 0.8-2.2 0.9 0.2-0.3 2.3-1.9 3.4-3.2 1.2-1.4 2-2.5 2-2.5l-1.3 0.5c0 0 1-1 2.5-3.2z"/><path class="c" d="m872.6 473.3c0 0.2-0.1 0.6 0.2 0.5 0.1-0.1 0.3-0.4 0.6-0.8q-0.4 0.2-0.8 0.3z"/><path class="c" d="m869 438.4c-0.2 0.4-0.4 0.7-0.3 0.7 0.1-0.1 0.5-0.3 0.9-0.6 0.3-0.3 0.6-0.6 0.7-0.6 0.1-0.1-0.5 0.1-1.3 0.5z"/><path class="c" d="m865.3 426.6c0.3-0.1 1.4-0.5 2.8-1-0.9 0.9-1.7 1.6-1.4 1.6 0.1 0 2.2-1.1 3.2-1.6q0-0.1 0-0.1c0.7-0.5 1.6-1.4 2.8-2.6-1 0.3-1.7 0.5-1.9 0.6-0.2 0 0.3-0.3 1.3-1.3 1.1-1 3.3-3.1 3.5-3.4 0.1-0.2-2 0.6-2.5 0.7 0-0.1 3.5-2.7 5-6-0.1 0-2.2 1.6-2.6 1.8-0.2 0 0.8-1.5 1.2-2.2l-0.2 0.1c-0.4 0.4-0.9 0.9-1.7 1.4-0.3 0.2-0.8 0.5-1.4 0.8-1.7 2.6-4.1 4.4-4.1 4.5 0.4 0 2.6-0.9 2.4-0.6-0.2 0.2-2.3 2.3-3.4 3.3-1.1 1-1.6 1.4-1.4 1.3 0.2-0.1 1-0.3 1.9-0.6-1.8 2-3.2 3.1-3.5 3.3z"/><path class="c" d="m867.3 438.7q0.6-0.5 1.3-1.1l-2.2 0.7c-0.3 0.4-1.5 1.5-1.2 1.5 0.1 0 1.1-0.5 2.1-1.1z"/><path class="c" d="m866.7 451.1c-0.4 0.5-0.6 1-0.1 0.5q0.2-0.2 0.6-0.4c0.2-0.3 0.5-0.5 0.5-0.6 0.1-0.1-0.4 0.1-1 0.5z"/><path class="c" d="m866.2 463.6c0.1-0.1 0.4-0.3 0.7-0.5q-0.3 0.1-0.8 0.3c-0.1 0.3 0 0.4 0.1 0.2z"/><path class="c" d="m867.1 474.3c0.2-0.2 1.1-0.4 2.4-0.8-0.5 0.6-0.7 1-0.5 0.9 0.4 0 1.2-0.4 2-0.7 0.3-0.4 1.5-2 2.8-3.7l-0.8-0.5c0 0-3 2.9-3.2 3.1-0.3 0.3-0.2-0.9-0.2-0.9 0 0-0.6 0.3-1.2 0.8-0.9 1.1-1.4 1.9-1.3 1.8z"/><path class="c" d="m868.8 432.6c-1.4 1.2-3.2 2.4-3 2.4 0.2 0 0.9-0.1 1.8-0.2-2.9 2.3-5.6 4-5.9 4.2l3.1-1c-1.6 1.3-2.9 2.3-2.6 2.3 0.2-0.1 2.7-1.3 3.7-1.8l-0.3 0.1c0.3-0.2 3-2 5.9-4.3-0.9 0.2-1.6 0.2-1.8 0.2-0.2 0 1.6-1.1 3-2.3 1.4-1.2 2.4-2.1 2.4-2.1 0 0-1.7 0.1-1.8 0.2 0 0 3.9-2.3 4.5-5.6-0.2 0.2-1.2 0.6-1.5 0.8-0.4 0.3 0.5-1.4 0.5-1.4 0 0-0.1 0-0.6 0.4-0.3 0.4-1.8 1.1-2.5 1.5-1.1 2.8-4.3 4.7-4.3 4.7 0.2 0 1.8-0.2 1.8-0.2 0 0-1 0.9-2.4 2.1z"/><path class="c" d="m863.3 451.6c-0.6 0.7-1.5 1.6-1 1.4 0.2-0.1 0.7-0.4 1.3-0.8q0.1 0 0.1 0 0.4-0.4 1.2-1.1c-0.6 0.2-1.2 0.4-1.6 0.5z"/><path class="c" d="m862.7 473.6c-0.1 0.3-0.2 0.7-0.1 0.6 0.2-0.1 0.7-0.5 1.3-0.9q0.1-0.1 0.2-0.2-0.9 0.4-1.4 0.5z"/><path class="c" d="m872.9 440.9c2.3-1.8 3.2-3.1 4.2-5.8-1.7 2.1-4.2 3.3-4.5 3.5-0.3 0.2 0.9-1.7 1-2 0 0-0.2 0.2-0.8 0.6q-0.2 0.1-0.4 0.2c-0.7 1.6-1.7 2.6-3.4 3.9-2 1.5-3.2 2-2.6 1.9 0.7-0.1 1.7-0.3 1.7-0.3 0 0 1.4-0.5-1.5 1.7-3 2.3-5.6 3.6-4.8 3.3 0.6-0.2 1.8 0 2.6 0-3.4 2.8-6.3 4.4-5.7 4.4 0.2 0 1.1-0.3 2.3-0.8-1.2 1.1-2 1.9-1.6 1.8 0.5-0.1 2-0.9 3.1-1.5q0-0.1 0.1-0.1c0.4-0.4 2.8-1.9 5.7-4.3-0.9 0.1-2-0.1-2.6 0.1-0.8 0.2 1.8-1.1 4.7-3.3 3-2.2 1.6-1.7 1.6-1.7 0 0-1.1 0.2-1.7 0.3-0.6 0 0.6-0.4 2.6-1.9z"/><path class="c" d="m858.8 474.1c0.2-0.1 0.7-0.3 1.4-0.6-0.5 0.6-0.8 1.1-0.6 1 0.6 0 2-0.6 2.8-0.9 0.1-0.2 0.6-0.7 1.4-1.4-0.7 0.2-1.1 0.2-1.1 0.2 0-0.1 3-2.6 3.2-2.7 0.2-0.2-0.9 0.1-1 0-0.2 0 0.7-0.5 2.2-1.8 1.6-1.2 1.9-2 1.9-2 0 0-1 0-1.3 0-0.2 0.1 0.6-0.3 1.9-1.2 0.7-0.4 1.5-1.1 2.3-1.8 0.8-1.1 1.4-2.1 1.9-2.9-1.6 1.3-3.3 2.9-3.7 3.2-0.6 0.5 0.6-1.8 0.6-1.8 0 0-1.3 0.9-2.5 1.8q-0.1 0.1-0.1 0.2c-0.8 0.7-1.7 1.4-2.3 1.8-1.4 0.9-2.2 1.2-1.9 1.2 0.2-0.1 1.3-0.1 1.3-0.1 0 0-0.4 0.8-1.9 2-1.5 1.3-2.5 1.8-2.3 1.9 0.2 0 1.2-0.3 1-0.1-0.2 0.2-3.2 2.6-3.2 2.7 0.1 0 0.4 0 1.1-0.1-1.3 1.1-1.8 1.6-1.1 1.4z"/><path class="c" d="m854.7 465.8c0.6-0.1 3.6-1.1 4-1.2-0.2 0.2-1.5 1.4-1.1 1.2 0.1 0 0.5-0.2 1-0.4-0.4 0 0.6-0.6 2-1.4-1 0.2-1.8 0.3-2 0.4-0.5 0.1 0.9-0.9 2.9-2.4-0.8 0.1-1.2 0.1-1.2 0.1 0 0 2.3-1.7 2.5-1.8 0.3-0.1-0.8 0.1-1.3 0.1-0.6 0 1.2-0.7 3.9-2.7 2.6-2 2.7-2.2 2.7-2.2l-1-0.1c0 0 0.3-0.5 2.1-1.6 0.9-0.5 1.9-1.3 3-2 0.8-1.1 1.4-2.1 1.9-2.8-1.3 0.8-2.9 1.6-3.6 2.2-1 0.8 0.7-1.4 0.8-1.7 0.1-0.2-0.8 0.4-1.8 1q-0.5 0.8-1.2 1.7c-1 0.8-2.1 1.5-2.9 2-1.9 1.2-2.2 1.6-2.2 1.6l1 0.2c0 0-0.1 0.1-2.7 2.2-2.6 2-4.4 2.6-3.9 2.6 0.5 0 1.6-0.2 1.4-0.1-0.3 0.2-2.5 1.8-2.5 1.8 0 0 0.3 0.1 1.2-0.1-2 1.5-3.5 2.5-3 2.4 0.3 0 1-0.2 2-0.4-1.4 0.8-2.3 1.4-2 1.4z"/><path class="c" d="m873.8 425.6c-0.2 0.2-0.4 0.5-0.4 0.6q0 0 0.3-0.2 0.1-0.2 0.1-0.4z"/><path class="c" d="m873.4 415.4q0.5-0.7 0.8-1.5c0 0.1-0.6 0.4-1.2 0.9q0 0 0 0l-0.3 0.4c-0.4 0.4-1.1 1-0.8 1 0.1-0.1 0.8-0.4 1.5-0.8z"/><path class="c" d="m872 414.9c0.3-0.5 0.6-1 0.8-1.4l-0.2 0.1c-0.4 0.4-0.9 0.9-1.7 1.4-0.3 0.2-0.8 0.5-1.4 0.8 0.5-0.1 1.4-0.5 2.5-0.9z"/><path class="c" d="m870.5 426.8c0.1 0 1-0.5 1.8-0.9 0.1-0.4 0.6-1.4 0.6-1.4 0 0 0 0-0.5 0.5-0.2 0.1-0.4 0.2-0.7 0.4-0.8 0.8-1.4 1.4-1.2 1.4z"/><path class="c" d="m870.1 425.8c0.2-0.2 0.3-0.4 0.4-0.5 0 0-0.2 0.1-0.6 0.2q0 0 0 0.1-0.6 0.4-0.7 0.6c0.1-0.1 0.4-0.2 0.9-0.4z"/><path class="c" d="m872.4 437.4c0.3-0.5 0.5-1.1 0.8-1.9-1.1 1.5-2.6 2.5-3.6 3-0.3 0.4-0.7 0.9-0.5 0.9 0.2 0 2.3-1.3 3.3-2z"/><path class="c" d="m872.8 473.8q-0.1 0.2 0.1 0.2c0.7-0.1 3.6-1.3 3.6-1.3 0 0-0.2 1 0.3 0.7 0.6-0.3 4.5-2.7 4.5-2.7 0 0-0.1 1.4 0.3 1.2 0.1-0.1 0.4-0.2 0.7-0.5l-0.2-1.5c-0.2 0.4-0.4 0.6-0.5 0.7-0.3 0.3-0.4-1.2-0.4-1.2 0 0-3 2.7-3.5 2.9-0.4 0.2-0.3-1.1-0.3-1.1 0 0-3.9 2.3-4.5 2.6q0 0-0.1 0z"/><path class="c" d="m869 438.4c0.3-0.5 0.7-1.2 0.8-1.3-0.1 0-0.3 0.1-0.9 0.5-0.3 0.3-1 0.7-1.6 1.1-0.9 0.7-1.5 1.2-1.2 1.1 0.1 0 1.7-0.8 2.9-1.4z"/><path class="c" d="m866.2 452.6c0.4-0.2 2-1.2 3.3-2.1q0.4-0.6 0.7-1.1c-1 0.7-2.2 1.3-3 1.8-0.7 0.7-1.5 1.6-1 1.4z"/><path class="c" d="m866.9 463.1q0.2-0.1 0.2-0.1c0 0-0.9 1.6-0.7 1.4 0.1 0 0.9-0.6 1.8-1.2 0.7-1 1.3-2 1.7-2.8-1.1 1-2.3 2-3 2.7z"/><path class="c" d="m863.2 452.9c0.7-0.1 2.4-1.1 3.5-1.8 0.3-0.5 0.7-1.1 0.8-1.2 0-0.2-2.3 1.3-3.8 2.3q0 0-0.1 0c-0.4 0.5-0.6 0.7-0.4 0.7z"/><path class="c" d="m863.3 451.6c0.3-0.2 0.5-0.5 0.6-0.6 0-0.1-0.6 0.3-1.3 0.7q-0.1 0-0.1 0.1-0.1 0 0 0 0.2 0 0.8-0.2z"/><path class="c" d="m863.9 473.3c-0.4 0.5-0.6 0.8-0.4 0.8 0.8 0 3-1.1 3.3-1.2-0.1 0.1-0.5 1-0.3 0.8 0.2-0.1 1.1-0.7 1.9-1.2 0.4-0.6 1-1.4 1.5-2l-0.7-0.6c0 0-3 2.9-3.3 3.2-0.2 0.2-0.2-1-0.2-1 0 0-0.9 0.6-1.8 1.2z"/><path class="c" d="m862.4 473.6q-0.2 0.2 0.2 0.1 0.1 0 0.1-0.1c0.1-0.1 0.2-0.2 0.2-0.3q-0.1 0.1-0.5 0.3z"/><path class="c" d="m861.5 465.4c0.3-0.2 3.1-1.4 4.6-2 0.2-0.5 0.8-1.6 0.8-1.6 0 0-4.1 3-4.4 3.1-0.2 0.1 0.7-1.5 0.7-1.5 0 0-2.8 1.2-4.5 1.9 0.9-0.1 3.5-1 3.9-1.1-0.2 0.1-1.5 1.4-1.1 1.2z"/><g style="opacity:0"><path class="c" d="m0.4 691.3h1143.5v11.5h-1143.5z"/><path class="b" d="m749.1 561.3v19.3l-38.3 11.2-11.7-7.8c0 0 42.4-25.2 50-22.7z"/><path class="b" d="m690.8 501.4v4.1c0 0-7.2 3.7-11.6 4.7-4.4 0.9-20.5 1.3-20.7-2.1-0.3-3.4 32.3-6.7 32.3-6.7z"/><path class="a" d="m557.9 670.8c-1.7 5.5-25.5 19.6-27 20.5h-0.1-191.5c20-1.8 69.7-11.1 76.2-15.6 6.5-4.5 18.5-6.5 20.3-11 1.1-2.7 2.9-7 5.3-10.5 4.7-2.9 7.6-2.3 18.2-4.1 10.6-1.9 20.1-4.8 16.7-6.3-3.4-1.6-6.1-10.3-6.1-10.3 0.3-1.8 0.2-4.4 0.6-6.1 0.5-2.2 6.1-15 6.5-17.9 0.3-2.9-2.7-12.9-5-19.9-1.1-3.4-1.4-5.3-1.3-6.5 2.5-2.6 9.3-0.8 9.4-3.1 0.1-2.2-3.1-9.9-3.1-9.9 0 0-6-9.3-8.2-10.7-2.3-1.3-4-2.8-4.5-6.2-0.4-3.4-5.9-14.9-6.4-15.9-0.5-1-6.8-12.8-12.6-17.8-5.8-5-8.7-20.2-8.7-20.2h0.1c0.2 0.5 0.6 0.9 1.4 1.2 6.3 2.5 15.3-0.5 16.5 2.9 0.4 1 1.2 1.8 2.6 2.3q0 0 0 0c0.3 0.2 11.4 1.6 14.6 1.9 7.6 0.8 29.7 13.6 27 26.3-2.8 12.6-8.7 10.6-8.8 15.6-0.1 5 4.4 9 5.5 9 1.1 0 9.6 0.3 10.2 1.2 0.6 0.9 3.8 10.5 5.4 11.6 1.5 1.2 20.9 9.9 21.5 10.5 0.7 0.6 13.5 7 14.7 11.2 1.2 4.2 1.8 11.4 1.3 16.5-0.5 5.1-2.1 11-6.9 13.9-4.7 2.9-11.4 10.9-18.2 11.2-6.9 0.3-11 3.8-7 6.6 4 2.9 12.3 8.8 19.5 10.6 7.1 1.7 23.6 13.2 21.9 19z"/><path class="a" d="m463.8 519.8c0.6-3.1 1.5-3-0.5-6-0.9-1.4-0.5-2.7 0.6-3.8 1.8 0.9 3.5 1.8 4.7 2.2 3.8 1.1-4.2 4.5-4.8 7.6z"/><path class="a" d="m463.8 519.8c0.6-3.1 1.5-3-0.5-6-0.9-1.4-0.5-2.7 0.6-3.8 1.8 0.9 3.5 1.8 4.7 2.2 3.8 1.1-4.2 4.5-4.8 7.6z"/><path class="b" d="m557.9 670.8c-1.7 5.5-25.5 19.6-27 20.5h-0.1-88.7c0 0 39.5-19.1 42.4-24 2.8-4.8 9.5 1.2 13-3 3.5-4.1 4.1-18 1.3-24.3-2.8-6.3-2.2-9.2-2.7-17.3-0.5-8.2-6.6-18.7-6.3-22.2 0.3-3.5 4.3-16 4.3-20.7 0-4.6-0.8-20.4 0.3-20.4 1.1 0 10.7-0.6 11.3 0.3 0.6 0.9 3.5 7.4 5.1 8.6 1.6 1.2 21.2 12.9 21.8 13.5 0.7 0.6 13.5 7 14.7 11.2 1.2 4.2 1.8 11.4 1.3 16.5-0.5 5.1-2.1 11-6.9 13.9-4.7 2.9-11.4 10.9-18.2 11.2-6.9 0.3-11 3.8-7 6.6 4 2.9 12.3 8.8 19.5 10.6 7.1 1.7 23.6 13.2 21.9 19z"/><path class="d" d="m557.9 670.8c-1.7 5.5-25.5 19.6-27 20.5h-0.1-15.8c0 0 2.7-9.6 4.6-10.6 1.8-0.9 6.5-2.9 6.5-2.9 0 0-4.5-3.2-5.1-5.1-0.7-2-0.3-6 0.3-7.5 0.6-1.5 0-7.3-0.5-8.8-0.4-1.5-5.7-6.8-5.8-8.3 0-1.4 0-8 0-8.6 0.2 0.6 0.7 1.2 1.5 1.7 4 2.9 12.3 8.8 19.5 10.6 7.1 1.7 23.6 13.2 21.9 19z"/><path class="d" d="m504.5 609.7c0 0 9.5 11.6 14.5 13.8 5 2.2 29-12.8 29-12.8l-16.9-5.5z"/><path class="b" d="m464.8 515l12.1 14.4 15.2-3.4-5.8-9.8z"/><path class="c" d="m1026.4 691.3h-495.6 0.1c1.5-0.9 25.3-15 27-20.5 1.7-5.8-14.8-17.3-21.9-19-7.2-1.8-15.5-7.7-19.5-10.6-0.8-0.5-1.3-1.1-1.5-1.7q0-0.1 0-0.1c-0.7-2.3-0.5-15.8 4.9-16.1 6.8-0.3 13.5-8.2 18.2-11.1 2.2-1.4-30 3.1-33.6-2.5-11.3-17.5-8.5-47.7-10.1-50.3-0.6-1-4.4-4.8-4.4-9.7v-0.2c0-0.9 0.3-1.6 0.6-2.2q0 0 0 0c1.6-2.6-27.5-19.1-17-19.1 6.4 0.1 14.1-2.2 15-3.7 0.9-1.3-23.8-9.5-23.8-9.5-1.4-0.5-10-10.5-10.4-11.5-1.3-3.4-10-0.5-16.3-3-0.8-0.3-1.2-0.7-1.4-1.2-1.2-3 10.2-8.5 11.9-11.8 2-3.7 10-3.7 19.3-5.3 9.2-1.4 8.6-4.5 24.6-8.9 16-4.3 55.6-3.3 55.6-3.3 27.2 0.5 59.7 2.8 77 1.3 17.4-1.5 25.7-2.1 30.7 2.2 5 4.3 21.8 14.8 24.8 16.8 3 2 10.2 11.1 10.2 11.1-2.2-0.4-11.3 2.1-14.8 4-3.5 1.8-13 2.6-13 2.6 6 2.4 23.8-1.9 26.6-2.4 2.9-0.4 10.7-0.2 13.4 0.2 2.6 0.3 12.6 7.7 13.5 10.5 0.8 2.9 16.8 26.9 16.8 26.9 3.2 6.3 15.8 18.1 15.8 18.1-6.6 1.4-15.6 8.9-19.5 12.4-3.8 3.5-21.5 13.3-21.5 13.3 16.7 1.3 29.7-6.7 34-7.8 4.4-1.2 12 0.8 17.5 2.6 5.5 1.9 13 2 21.9-0.3 8.8-2.3 41.3 14.8 49.8 19.3 8.5 4.5 22.8 14.2 28.8 18.9 6 4.6 40.2 14 51.2 22.7z"/><path class="c" d="m459.3 650.1c-10.6 1.8-13.5 1.2-18.2 4.1 1.6-2.5 3.6-4.6 5.8-5.6 5.5-2.6 22.2-12.3 22.7-13.9q0.2-0.5 0.3-1.2c0 0 2.7 8.7 6.1 10.3 3.4 1.5-6.1 4.4-16.7 6.3z"/><path class="e" d="m441.1 654.2q-0.1 0-0.1 0"/><path class="c" d="m480.1 580c-0.1 2.3-6.9 0.5-9.4 3.1 0.1-1.3 0.6-1.8 1-2.5 0.8-1.4 5.3-10.5 5.3-10.5 0 0 3.2 7.7 3.1 9.9z"/><path class="a" d="m604.9 505.1h-62.6v-6.5h62.6z"/><path class="b" d="m604.9 498.6h-62.6v-1.7h62.6z"/><path class="a" d="m604.9 496.9h-62.6v-6.5h62.6z"/><path class="b" d="m604.9 490.4h-62.6v-1.7h62.6z"/><path class="a" d="m604.9 488.7h-62.6v-6.4h62.6z"/><path class="b" d="m604.9 482.3h-62.6v-1.8h62.6z"/><path class="a" d="m604.9 480.5h-62.6v-6.4h62.6z"/><path class="b" d="m604.9 474.1h-62.6v-1.7h62.6z"/><path class="a" d="m604.9 472.4h-62.6v-6.5h62.6z"/><path class="b" d="m604.9 465.9h-62.6v-1.7h62.6z"/><path class="f" d="m683.5 397.6q0 0-0.1 0c-0.9 0.5-21.2 10.4-42.3 12.2-6.8 0.6-13.1 1.1-19.5 1.6-13.9 1.1-28.1 1.8-47.8 1.8h-0.4c-19.5 0-33.6-0.7-47.4-1.8-6.5-0.5-13-1-19.9-1.6-21.1-1.8-41.4-11.7-42.4-12.2q0 0 0 0c35.5 2.7 48.2-7.9 48.2-7.9h61.5 0.1 61.5 0.3c0 0 12.6 10.6 48.2 7.9z"/><path class="g" d="m662.5 316.9q0 0-0.1 0.2c-1.3 1.9-10.2 13.5-34.2 18.4q-2.4 0.5-4.8 0.9c-22.9 4.2-41.8 3.9-49.9 3.9h-0.1c-8 0-26.7 0.3-49.3-3.7q-2.6-0.5-5.4-1.1c-23.9-4.9-32.8-16.5-34.2-18.3q-0.1-0.2-0.1-0.3c0.4 0.2 15.7 6.6 25.8 6.2 0.9 0.2 2.1 0.4 3.8 0.4 4 0 10.4-1.1 20.8-4.6 12.9-4.3 27.5-10.9 38.6-17.4q0.1 0 0.1 0 0 0 0.1 0c11.1 6.5 25.7 13.1 38.6 17.4 10.4 3.5 16.9 4.6 20.9 4.6 1.6 0 2.8-0.2 3.7-0.4 10.1 0.4 25.3-6 25.7-6.2z"/><path class="f" d="m662.5 316.9q0 0-0.1 0.2c-1.3 1.9-10.2 13.5-34.2 18.4q-2.4 0.5-4.8 0.9c-22.9 4.2-41.8 3.9-49.9 3.9h-0.1c-8 0-26.7 0.3-49.3-3.7q-2.6-0.5-5.4-1.1c-23.9-4.9-32.8-16.5-34.2-18.3q-0.1-0.2-0.1-0.3c0.4 0.2 15.7 6.6 25.8 6.2 0.9 0.2 2.1 0.4 3.8 0.4 4 0 10.4-1.1 20.8-4.6 12.9-4.3 27.5-10.9 38.6-17.4q0.1 0 0.1 0 0 0 0.1 0c11.1 6.5 25.7 13.1 38.6 17.4 10.4 3.5 16.9 4.6 20.9 4.6 1.6 0 2.8-0.2 3.7-0.4 10.1 0.4 25.3-6 25.7-6.2z"/><path class="a" d="m632.5 414.3v-1.1c0 0 9.5 0 23.1-4 2.6-0.7 2.8-0.3 1.2 1.6-1.7 2-5.6 5.8-10.9 11.6h-3.9-5.4-4.1z"/><path class="b" d="m632.5 413.2v1.1 8.1h4.1 4.4c3.2-3.8 6.2-7.6 8.9-11.7-10.5 2.5-17.4 2.5-17.4 2.5z"/><path class="a" d="m645.9 332.1c1.8-1.3 0.8 1-1.2 4.3-2 3.2-5.1 7.2-7.6 9.8h-4-5.4-4v-0.2-1.3-4.8-1.9h0.4c13 0 18.1-3.4 21.8-5.9z"/><path class="b" d="m624.1 338h-0.4v1.9 4.8 1.3 0.2h4 4.1c3.1-3.3 5.8-6.8 8.1-10.7-3.5 1.4-8.4 2.5-15.8 2.5z"/><path class="d" d="m642 422.4v40h-5.4v-40z"/><path class="a" d="m636.6 422.4v40h-24.4v-40h1.5c3.1-3.3 5.4-5.7 6.9-7.2 0.2 0 7.3-0.4 11.9-0.9v8.1z"/><path class="a" d="m635 375.7v14h-61.5-0.1-61.5v-14l2.5-1.9h5.4 11.4 4.3 37.9 0.1 38.6 4.2 11.4 5.4z"/><path class="d" d="m633.1 346.2v27.6h-5.4v-25.8-1.8z"/><path class="a" d="m627.7 346.2v1.8q-3.8 2-8.1 3.9l-9.7 1.5c-32.8 3.2-72.2 0.1-72.2 0.1l-9.5-1.2q-4.4-1.9-8.3-4v-2.1h4v-0.2l13.8 4.6c0 0 34.5 4 72.2 0l13.8-4.6v0.2z"/><path class="d" d="m623.7 339.9v4.8c-3.6 4.6-13.8 5.9-13.8 5.9-37.7 4-72.2 0-72.2 0 0 0-10.5-1.5-13.9-5.9v-4.8c0 0 43.9 8.5 99.9 0z"/><path class="h" d="m623.7 344.7v1.3c-0.8 1.5-2.5 3.9-4.1 5.9q-0.8 0.9-1.5 1.6h-1.8-4.2-2.2v-0.1-2.8-2.1h0.2c8 0 11.2-2.1 13.4-3.7q0.1 0 0.2-0.1z"/><path class="b" d="m623.7 344.7v1.3c-0.4 0.7-1.1 1.8-1.9 2.9-0.6 1-1.4 2-2.2 3q-0.8 0.9-1.5 1.6h-1.8-4.2-2.2v-0.1-2.8-2.1h0.2c8 0 11.2-2.1 13.4-3.7q0.1 0 0.2-0.1z"/><path class="a" d="m620.6 415.2c-1.5 1.5-3.8 3.9-6.9 7.2h-1.5-5.4-2.6v-6.5c0 0 6.8 0 16.4-2.8q0.8-0.2 1.1-0.3c0.9 0 0.5 0.7-1.1 2.4z"/><path class="d" d="m616.3 353.5v20.3h-4.2v-20.3z"/><path class="d" d="m606.8 437.1v-14.7h5.4v40h-5.4v-10.6z"/><path class="a" d="m606.8 422.4v29.4c-4.8-13.6-17.7-23.4-33-23.4q0 0 0 0c-15.4 0-28.4 9.9-33.1 23.6v-29.6h2.6v-6.5c0 0 22 1.5 60.9 0v6.5z"/><path class="a" d="m526.9 415.2c-1.6-1.8-2.1-2.5-1-2.4q0.3 0.1 1 0.3c9.6 2.8 16.4 2.8 16.4 2.8v6.5h-2.6-5.4-1.5c-3.1-3.3-5.4-5.7-6.9-7.2z"/><path class="b" d="m604.2 415.9v6.5h2.6 4.1c2.4-2.7 4.6-5.5 6.6-8.5-8 2-13.3 2-13.3 2z"/><path class="b" d="m540.7 422.4h2.6v-6.5c0 0-5.3 0-13.3-2 2.1 3 4.3 5.8 6.5 8.5z"/><path class="d" d="m540.7 452v10.4h-5.4v-40h5.4v14.8z"/><path class="h" d="m537.7 350.6v2.9h-0.5-1.7-4.3-1.8q-0.6-0.5-1.2-1.2c-1.7-2.1-3.5-4.7-4.4-6.3v-1.3q0.1 0.1 0.2 0.1c2.2 1.6 5.4 3.7 13.4 3.7h0.3z"/><path class="b" d="m537.7 350.6v2.9h-0.5-1.7-4.3-1.8q-0.6-0.5-1.2-1.2c-1.7-2.1-3.5-4.7-4.4-6.3v-1.3q0.1 0.1 0.2 0.1c2.2 1.6 5.4 3.7 13.4 3.7h0.3z"/><path class="d" d="m535.5 353.5v20.3h-4.3v-20.3z"/><path class="a" d="m535.3 422.4v40h-24.3v-40h4.1v-8.1c4.3 0.5 10.8 0.8 11.8 0.9 1.5 1.5 3.8 3.9 6.9 7.2z"/><path class="c" d="m683.4 397.6c-0.9 0.5-21.2 10.4-42.3 12.2-6.8 0.6-13.1 1.1-19.5 1.6-13.9 1.1-28.1 1.8-47.8 1.8h-0.4c-19.5 0-33.6-0.7-47.4-1.8-6.5-0.5-13-1-19.9-1.6-21.1-1.8-41.4-11.7-42.4-12.2 0.7 0.4 11.7 7.6 27.3 13.4-1.8-2.1-1.7-2.5 1-1.8 13.6 4 23.1 4 23.1 4v1.1c4.3 0.5 10.8 0.8 11.8 0.9-1.6-1.8-2.1-2.5-1-2.4q0.3 0.1 1 0.3c9.6 2.8 16.4 2.8 16.4 2.8 0 0 22 1.5 60.9 0 0 0 6.8 0 16.4-2.8q0.8-0.2 1.1-0.3c0.9 0 0.5 0.7-1.1 2.4 0.2 0 7.3-0.4 11.9-0.9v-1.1c0 0 9.5 0 23.1-4 2.6-0.7 2.8-0.3 1.2 1.6 15.2-5.8 26-12.8 26.6-13.2z"/><path class="a" d="m523.8 346v0.2h-4-5.4-4c-2.2-2.3-4.9-5.8-6.8-8.7-2.6-3.9-4-6.9-1.9-5.4 3.6 2.5 8.7 5.9 21.8 5.9h0.3v1.9 4.8z"/><path class="b" d="m523.8 346.2v-0.2-1.3-4.8-1.9h-0.3c-7.6 0-12.5-1.1-16-2.5 2.3 3.8 4.8 7.4 7.7 10.7h4.6z"/><path class="d" d="m519.8 348.3v25.5h-5.4v-27.6h5.4z"/><path class="a" d="m515.1 414.3v8.1h-4.1-5.4-3.9c-5.1-5.6-8.9-9.3-10.7-11.4-1.8-2.1-1.7-2.5 1-1.8 13.6 4 23.1 4 23.1 4z"/><path class="b" d="m515.1 422.4v-8.1-1.1c0 0-7.3 0-18.2-2.7 2.9 4.2 6.3 8.2 9.9 11.9h4.2z"/><path class="d" d="m511 422.4v40h-5.4v-40z"/><path class="d" d="m573.8 428c-14.8 0.1-28 9.2-33.1 23v1.9c4.9-14.6 18.3-24.1 33.1-24.2 14.7 0.1 27.8 9.3 33 23.7v-1.6c-5.2-13.6-18.3-22.7-33-22.8z"/><path class="d" d="m573.8 424.4c-13.6 0-25.9 6.9-33.1 18.4v1.3c7-11.9 19.5-19 33.1-19 13.5 0 26 7.1 33 18.6v-1c-7.2-11.5-19.5-18.3-33-18.3z"/><path class="d" d="m599.9 440.4l-0.4-0.5 2.7-2.4 0.4 0.5z"/><path class="d" d="m604.6 447.4l0.4 0.6 1.8-1v-0.8z"/><path class="d" d="m593.7 434.6l-0.6-0.4 2-3 0.6 0.4z"/><path class="d" d="m585.4 430.4l-0.7-0.2 1.4-3.4 0.7 0.3z"/><path class="d" d="m577.3 428.4l-0.7-0.1 0.3-3.6 0.7 0.1z"/><path class="d" d="m567.8 429l-0.7-3.6 0.7-0.1 0.7 3.6z"/><path class="d" d="m559.4 431.6l-1.4-3.3 0.7-0.3 1.3 3.4z"/><path class="d" d="m552.1 436.1l-2.4-2.8 0.5-0.4 2.4 2.7z"/><path class="d" d="m545.6 442.4l-2.8-2.4 0.5-0.5 2.7 2.3z"/><path class="d" d="m540.7 448.8v0.8l0.7 0.3 0.3-0.6z"/><path class="d" d="m605.3 441.1l0.4 0.5 1.1-0.9v-1z"/><path class="d" d="m599.7 434.6l-0.5-0.5 2.2-2.8 0.6 0.4z"/><path class="d" d="m591.3 429.2l-0.6-0.3 1.8-3.2 0.6 0.4z"/><path class="d" d="m582.4 425.7l-0.7-0.1 0.6-3.6 0.7 0.1z"/><path class="d" d="m572.5 424.7h-0.7v-3.6h0.7z"/><path class="d" d="m562.4 426.5l-0.8-3.5 0.7-0.1 0.8 3.5z"/><path class="d" d="m554 430.4l-1.8-3.2 0.6-0.3 1.8 3.1z"/><path class="d" d="m546.3 436.4l-2.5-2.6 0.5-0.5 2.5 2.6z"/><path class="d" d="m573.8 420.8c-12.9 0-25 5.8-33.1 15.8v1.1c8.1-10.3 20.2-16.2 33.1-16.2 12.8 0 25 6 33 16v-1c-8.1-10-20.1-15.7-33-15.7z"/><path class="b" d="m541.4 497.4h-40.9v-35h47.1v29.3z"/><path class="b" d="m601.1 497.4h40.9v-35h-47.1l2.3 27.2z"/><path class="c" d="m555.4 457.4c0 1.2-0.8 2.3-2 2.6l-0.5 0.1q-0.3 0.1-0.7 0.1h-1.7q-0.4 0-0.7-0.1l-0.5-0.1c-1.2-0.3-2-1.4-2-2.6 0-0.9 0.4-1.8 1.2-2.3l1.3-0.9c0.9-0.6 2.2-0.6 3.1 0l1.3 0.9c0.7 0.5 1.2 1.4 1.2 2.3z"/><path class="b" d="m555.1 482.3h-8v-22.1h8z"/><path class="a" d="m555.1 462.4l-12.8 13.9h-8l13-13.9z"/><path class="b" d="m555.1 462.4v19.9l-12.8 22.8v-28.8z"/><path class="c" d="m542.6 473.5c0 1.2-0.8 2.3-2 2.6l-0.5 0.1q-0.3 0.1-0.7 0.1h-1.7q-0.4 0-0.8-0.1l-0.4-0.1c-1.2-0.3-2-1.4-2-2.6 0-0.9 0.4-1.8 1.2-2.3l1.3-0.9c0.9-0.6 2.1-0.6 3.1 0l1.3 0.9c0.7 0.5 1.2 1.3 1.2 2.3z"/><path class="a" d="m542.3 505.1h-8v-28.8h8z"/><path class="c" d="m591.8 457.4c0 1.2 0.8 2.3 2 2.6l0.4 0.1q0.4 0.1 0.8 0.1h1.7q0.4 0 0.7-0.1l0.5-0.1c1.1-0.3 2-1.4 2-2.6 0-0.9-0.5-1.8-1.2-2.3l-1.4-0.9c-0.9-0.6-2.1-0.6-3 0l-1.3 0.9c-0.8 0.5-1.2 1.4-1.2 2.3z"/><path class="b" d="m592.1 482.3h7.9v-22.1h-7.9z"/><path class="a" d="m592.1 462.4l12.8 13.9h7.9l-12.9-13.9z"/><path class="b" d="m592.1 462.4v19.9l12.8 22.8v-28.8z"/><path class="c" d="m604.6 473.5c0 1.2 0.8 2.3 2 2.6l0.4 0.1q0.4 0.1 0.8 0.1h1.7q0.4 0 0.7-0.1l0.5-0.1c1.2-0.3 2-1.4 2-2.6 0-0.9-0.5-1.8-1.2-2.3l-1.3-0.9c-1-0.6-2.2-0.6-3.1 0l-1.3 0.9c-0.8 0.5-1.2 1.3-1.2 2.3z"/><path class="a" d="m604.9 505.1h7.9v-28.8h-7.9z"/><path class="b" d="m640 320.8c-0.2 0.3-0.4 0.6-0.7 0.9q-0.2 0.2-0.5 0.4-0.1 0.1-0.2 0.2c-0.5 0.3-1 0.6-1.8 0.8-0.9 0.2-2.1 0.4-3.7 0.4-4 0-10.5-1.1-20.9-4.5-12.8-4.4-27.5-11-38.6-17.5 1.6 0 4.9-2.1 5.1-2.3 10.3 5.7 23.1 11.5 34.5 15.3q3.3 1.1 6 1.9c3.1 0.9 5.6 1.5 7.7 1.9q1.9 0.3 3.4 0.5 0.8 0.1 1.5 0.2c1.7 0.1 2.8 0 3.5-0.2 0.5-0.1 0.7-0.2 0.8-0.4 0.4-0.5 0.3-0.9 0.2-1.1-0.1-0.5-0.7-1-1.5-1.3-1.1-0.4-1.7-1.7-1.3-2.9q0.1-0.2 0.2-0.3 0-0.2 0.1-0.3 0.1 0 0.1 0 0.1-0.1 0.2-0.2c0-0.1 0.1-0.1 0.2-0.2 0-0.1 0.1-0.1 0.2-0.2q0.2 0 0.3-0.1c0.5-0.2 1.1-0.2 1.6 0 2.1 0.7 3.6 2.2 4.2 4.1 0.6 1.6 0.3 3.4-0.6 4.9z"/><path class="b" d="m506.4 315.9c0.6-1.9 2.1-3.4 4.2-4.1 0.5-0.2 1.1-0.2 1.6 0q0.2 0.1 0.3 0.1c0.1 0.1 0.2 0.1 0.3 0.2 0 0.1 0.1 0.1 0.2 0.2q0.1 0.1 0.2 0.2 0 0 0 0 0.1 0.1 0.1 0.3c0.1 0.1 0.2 0.2 0.2 0.3 0.5 1.2-0.1 2.5-1.3 2.9-0.8 0.3-1.3 0.8-1.5 1.3-0.1 0.2-0.1 0.6 0.2 1.1 0.1 0.2 0.4 0.3 0.8 0.4 0.7 0.2 1.8 0.3 3.5 0.2q0.7-0.1 1.5-0.2 1.5-0.2 3.4-0.5c2.1-0.4 4.6-1 7.7-1.9q2.7-0.8 6-1.9c11.4-3.8 24.3-9.6 34.6-15.3 0 0 2.6-1.1 2.8-1 0.2 0.2 2.7 2 2.2 3.3-11.1 6.5-25.7 13.1-38.6 17.5-10.4 3.4-16.8 4.5-20.8 4.5-1.7 0-2.9-0.2-3.8-0.4-0.7-0.2-1.3-0.5-1.7-0.8q-0.2-0.1-0.3-0.2-0.3-0.2-0.5-0.4c-0.3-0.3-0.5-0.6-0.7-0.9-0.9-1.5-1.2-3.3-0.6-4.9z"/><path class="c" d="m628.2 335.5q-2.4 0.5-4.8 0.9c-22.9 4.2-41.8 3.9-49.9 3.9h-0.1c-8 0-26.7 0.3-49.3-3.7q-2.6-0.5-5.4-1.1c-23.9-4.9-32.8-16.5-34.2-18.3 1.1 1.6 7.5 10.9 19.1 20.3-2.6-3.9 20.2 2.4 20.2 2.4 0 0 43.9 8.5 99.9 0 0 0 23-6.8 21-3.5 10.7-9.1 16.7-17.7 17.7-19.3-1.3 1.9-10.2 13.5-34.2 18.4z"/><path class="b" d="m578.6 299.2c-0.8 1.3-2.8 2.3-5 2.3q-0.1 0-0.1 0 0 0-0.1 0c-2.2-0.1-4.1-1-5-2.3q-0.5-0.8-0.5-1.7c0-2.1 2.5-3.9 5.6-3.9 3.1 0 5.6 1.8 5.6 3.9q0 0.9-0.5 1.7z"/><path class="b" d="m577.5 290.9c0 1.9-1.8 2.7-4 2.7-2.2 0-4-0.8-4-2.7 0-1.9 2.2-4.3 4-4.3 1.6 0 4 2.4 4 4.3z"/><path class="b" d="m576.2 283.8c0 1.6-1.3 2.8-2.8 2.8-1.5 0-2.7-1.2-2.7-2.8 0-1.5 2.7-6.4 2.7-6.4 0 0 2.8 4.9 2.8 6.4z"/><path class="b" d="m683.5 397.6c-4.2 2.1-8.5 3.9-12.8 5.6q-6.6 2.5-13.4 4.3c-4.5 1.2-9.1 2.2-13.8 2.7-4.7 0.5-9.3 0.9-13.9 1.4q-14 1.3-28 2c-9.3 0.5-18.7 0.6-28 0.7-9.4-0.1-18.7-0.2-28-0.7q-14-0.7-28-2c-4.6-0.5-9.3-0.9-13.9-1.4-4.7-0.5-9.3-1.5-13.8-2.7q-6.8-1.8-13.4-4.3c-4.4-1.7-8.7-3.5-12.8-5.6 8.5 3.8 17.4 6.8 26.4 8.9 4.5 1.1 9.1 1.9 13.7 2.4 4.6 0.4 9.3 0.7 13.9 1.1 9.4 0.6 18.6 1.3 27.9 1.6q14 0.6 28 0.5 14 0.1 27.9-0.5c9.3-0.3 18.6-1 27.9-1.6 4.7-0.4 9.3-0.7 14-1.1 4.6-0.5 9.1-1.3 13.7-2.4 9-2.1 17.9-5.1 26.4-8.9z"/><path class="b" d="m662.5 316.9c-2.2 3.3-5.2 6-8.4 8.4-3.2 2.3-6.7 4.3-10.3 5.9-3.6 1.7-7.4 3-11.3 4-3.8 1-7.7 1.8-11.6 2.5-7.8 1.4-15.7 2.4-23.7 3-7.9 0.5-15.8 0.7-23.7 0.7-8 0-15.9-0.2-23.8-0.7-7.9-0.6-15.9-1.6-23.7-3-3.9-0.7-7.8-1.5-11.6-2.5-3.9-1-7.7-2.3-11.3-4-3.6-1.6-7.1-3.6-10.3-5.9-3.2-2.4-6.2-5.1-8.4-8.4 1.1 1.6 2.5 3 4 4.3q2.2 2 4.7 3.6c3.3 2.2 6.8 4 10.4 5.5 3.6 1.5 7.4 2.7 11.2 3.6 3.8 0.9 7.7 1.6 11.6 2.2 15.6 2.5 31.4 3.3 47.2 3.1 15.8 0.2 31.5-0.6 47.1-3.1 3.9-0.6 7.8-1.3 11.6-2.2q5.7-1.4 11.2-3.6c3.6-1.5 7.1-3.3 10.4-5.5q2.5-1.6 4.7-3.6c1.5-1.3 2.9-2.7 4-4.3z"/></g></svg>