<svg version="1.2" xmlns="http://www.w3.org/2000/svg" viewBox="0 0 1144 426" width="1144" height="426"><style>.a{fill:#c9223e}.b{fill:#500130}.c{fill:#7f0033}.d{fill:#2a102b}.e{fill:none;stroke:#7f0033;stroke-miterlimit:10;stroke-width:2}.f{fill:#ee4234}.g{fill:#de4f2f}.h{fill:#e2cf8f}</style><path class="a" d="m0.4 414.3h1143.5v11.5h-1143.5z"/><path class="b" d="m749.1 284.3v19.3l-38.3 11.2-11.7-7.8c0 0 42.4-25.2 50-22.7z"/><path class="b" d="m690.8 224.4v4.1c0 0-7.2 3.7-11.6 4.7-4.4 0.9-20.5 1.3-20.7-2.1-0.3-3.4 32.3-6.7 32.3-6.7z"/><path class="c" d="m557.9 393.8c-1.7 5.5-25.5 19.6-27 20.5h-0.1-191.5c20-1.8 69.7-11.1 76.2-15.6 6.5-4.5 18.5-6.5 20.3-11 1.1-2.7 2.9-7 5.3-10.5 4.7-2.9 7.6-2.3 18.2-4.1 10.6-1.9 20.1-4.8 16.7-6.3-3.4-1.6-6.1-10.3-6.1-10.3 0.3-1.8 0.2-4.4 0.6-6.1 0.5-2.2 6.1-15 6.5-17.9 0.3-2.9-2.7-12.9-5-19.9-1.1-3.4-1.4-5.3-1.3-6.5 2.5-2.6 9.3-0.8 9.4-3.1 0.1-2.2-3.1-9.9-3.1-9.9 0 0-6-9.3-8.2-10.7-2.3-1.3-4-2.8-4.5-6.2-0.4-3.4-5.9-14.9-6.4-15.9-0.5-1-6.8-12.8-12.6-17.8-5.8-5-8.7-20.2-8.7-20.2h0.1c0.2 0.5 0.6 0.9 1.4 1.2 6.3 2.5 15.3-0.5 16.5 2.9 0.4 1 1.2 1.8 2.6 2.3q0 0 0 0c0.3 0.2 11.4 1.6 14.6 1.9 7.6 0.8 29.7 13.6 27 26.3-2.8 12.6-8.7 10.6-8.8 15.6-0.1 5 4.4 9 5.5 9 1.1 0 9.6 0.3 10.2 1.2 0.6 0.9 3.8 10.5 5.4 11.6 1.5 1.2 20.9 9.9 21.5 10.5 0.7 0.6 13.5 7 14.7 11.2 1.2 4.2 1.8 11.4 1.3 16.5-0.5 5.1-2.1 11-6.9 13.9-4.7 2.9-11.4 10.9-18.2 11.2-6.9 0.3-11 3.8-7 6.6 4 2.9 12.3 8.8 19.5 10.6 7.1 1.7 23.6 13.2 21.9 19z"/><path class="c" d="m463.8 242.8c0.6-3.1 1.5-3-0.5-6-0.9-1.4-0.5-2.7 0.6-3.8 1.8 0.9 3.5 1.8 4.7 2.2 3.8 1.1-4.2 4.5-4.8 7.6z"/><path class="c" d="m463.8 242.8c0.6-3.1 1.5-3-0.5-6-0.9-1.4-0.5-2.7 0.6-3.8 1.8 0.9 3.5 1.8 4.7 2.2 3.8 1.1-4.2 4.5-4.8 7.6z"/><path class="b" d="m557.9 393.8c-1.7 5.5-25.5 19.6-27 20.5h-0.1-88.7c0 0 39.5-19.1 42.4-24 2.8-4.8 9.5 1.2 13-3 3.5-4.1 4.1-18 1.3-24.3-2.8-6.3-2.2-9.2-2.7-17.3-0.5-8.2-6.6-18.7-6.3-22.2 0.3-3.5 4.3-16 4.3-20.7 0-4.6-0.8-20.4 0.3-20.4 1.1 0 10.7-0.6 11.3 0.3 0.6 0.9 3.5 7.4 5.1 8.6 1.6 1.2 21.2 12.9 21.8 13.5 0.7 0.6 13.5 7 14.7 11.2 1.2 4.2 1.8 11.4 1.3 16.5-0.5 5.1-2.1 11-6.9 13.9-4.7 2.9-11.4 10.9-18.2 11.2-6.9 0.3-11 3.8-7 6.6 4 2.9 12.3 8.8 19.5 10.6 7.1 1.7 23.6 13.2 21.9 19z"/><path class="d" d="m557.9 393.8c-1.7 5.5-25.5 19.6-27 20.5h-0.1-15.8c0 0 2.7-9.6 4.6-10.6 1.8-0.9 6.5-2.9 6.5-2.9 0 0-4.5-3.2-5.1-5.1-0.7-2-0.3-6 0.3-7.5 0.6-1.5 0-7.3-0.5-8.8-0.4-1.5-5.7-6.8-5.8-8.3 0-1.4 0-8 0-8.6 0.2 0.6 0.7 1.2 1.5 1.7 4 2.9 12.3 8.8 19.5 10.6 7.1 1.7 23.6 13.2 21.9 19z"/><path class="d" d="m504.5 332.7c0 0 9.5 11.6 14.5 13.8 5 2.2 29-12.8 29-12.8l-16.9-5.5z"/><path class="b" d="m464.8 238l12.1 14.4 15.2-3.4-5.8-9.8z"/><path class="a" d="m1026.4 414.3h-495.6 0.1c1.5-0.9 25.3-15 27-20.5 1.7-5.8-14.8-17.3-21.9-19-7.2-1.8-15.5-7.7-19.5-10.6-0.8-0.5-1.3-1.1-1.5-1.7q0-0.1 0-0.1c-0.7-2.3-0.5-15.8 4.9-16.1 6.8-0.3 13.5-8.2 18.2-11.1 2.2-1.4-30 3.1-33.6-2.5-11.3-17.5-8.5-47.7-10.1-50.3-0.6-1-4.4-4.8-4.4-9.7v-0.2c0-0.9 0.3-1.6 0.6-2.2q0 0 0 0c1.6-2.6-27.5-19.1-17-19.1 6.4 0.1 14.1-2.2 15-3.7 0.9-1.3-23.8-9.5-23.8-9.5-1.4-0.5-10-10.5-10.4-11.5-1.3-3.4-10-0.5-16.3-3-0.8-0.3-1.2-0.7-1.4-1.2-1.2-3 10.2-8.5 11.9-11.8 2-3.7 10-3.7 19.3-5.3 9.2-1.4 8.6-4.5 24.6-8.9 16-4.3 55.6-3.3 55.6-3.3 27.2 0.5 59.7 2.8 77 1.3 17.4-1.5 25.7-2.1 30.7 2.2 5 4.3 21.8 14.8 24.8 16.8 3 2 10.2 11.1 10.2 11.1-2.2-0.4-11.3 2.1-14.8 4-3.5 1.8-13 2.6-13 2.6 6 2.4 23.8-1.9 26.6-2.4 2.9-0.4 10.7-0.2 13.4 0.2 2.6 0.3 12.6 7.7 13.5 10.5 0.8 2.9 16.8 26.9 16.8 26.9 3.2 6.3 15.8 18.1 15.8 18.1-6.6 1.4-15.6 8.9-19.5 12.4-3.8 3.5-21.5 13.3-21.5 13.3 16.7 1.3 29.7-6.7 34-7.8 4.4-1.2 12 0.8 17.5 2.6 5.5 1.9 13 2 21.9-0.3 8.8-2.3 41.3 14.8 49.8 19.3 8.5 4.5 22.8 14.2 28.8 18.9 6 4.6 40.2 14 51.2 22.7z"/><path class="a" d="m459.3 373.1c-10.6 1.8-13.5 1.2-18.2 4.1 1.6-2.5 3.6-4.6 5.8-5.6 5.5-2.6 22.2-12.3 22.7-13.9q0.2-0.5 0.3-1.2c0 0 2.7 8.7 6.1 10.3 3.4 1.5-6.1 4.4-16.7 6.3z"/><path class="e" d="m441.1 377.2q-0.1 0-0.1 0"/><path class="a" d="m480.1 303c-0.1 2.3-6.9 0.5-9.4 3.1 0.1-1.3 0.6-1.8 1-2.5 0.8-1.4 5.3-10.5 5.3-10.5 0 0 3.2 7.7 3.1 9.9z"/><path class="c" d="m604.9 228.1h-62.6v-6.5h62.6z"/><path class="b" d="m604.9 221.6h-62.6v-1.7h62.6z"/><path class="c" d="m604.9 219.9h-62.6v-6.5h62.6z"/><path class="b" d="m604.9 213.4h-62.6v-1.7h62.6z"/><path class="c" d="m604.9 211.7h-62.6v-6.4h62.6z"/><path class="b" d="m604.9 205.3h-62.6v-1.8h62.6z"/><path class="c" d="m604.9 203.5h-62.6v-6.4h62.6z"/><path class="b" d="m604.9 197.1h-62.6v-1.7h62.6z"/><path class="c" d="m604.9 195.4h-62.6v-6.5h62.6z"/><path class="b" d="m604.9 188.9h-62.6v-1.7h62.6z"/><path class="f" d="m683.5 120.6q0 0-0.1 0c-0.9 0.5-21.2 10.4-42.3 12.2-6.8 0.6-13.1 1.1-19.5 1.6-13.9 1.1-28.1 1.8-47.8 1.8h-0.4c-19.5 0-33.6-0.7-47.4-1.8-6.5-0.5-13-1-19.9-1.6-21.1-1.8-41.4-11.7-42.4-12.2q0 0 0 0c35.5 2.7 48.2-7.9 48.2-7.9h61.5 0.1 61.5 0.3c0 0 12.6 10.6 48.2 7.9z"/><path class="g" d="m662.5 39.9q0 0-0.1 0.2c-1.3 1.9-10.2 13.5-34.2 18.4q-2.4 0.5-4.8 0.9c-22.9 4.2-41.8 3.9-49.9 3.9h-0.1c-8 0-26.7 0.3-49.3-3.7q-2.6-0.5-5.4-1.1c-23.9-4.9-32.8-16.5-34.2-18.3q-0.1-0.2-0.1-0.3c0.4 0.2 15.7 6.6 25.8 6.2 0.9 0.2 2.1 0.4 3.8 0.4 4 0 10.4-1.1 20.8-4.6 12.9-4.3 27.5-10.9 38.6-17.4q0.1 0 0.1 0 0 0 0.1 0c11.1 6.5 25.7 13.1 38.6 17.4 10.4 3.5 16.9 4.6 20.9 4.6 1.6 0 2.8-0.2 3.7-0.4 10.1 0.4 25.3-6 25.7-6.2z"/><path class="f" d="m662.5 39.9q0 0-0.1 0.2c-1.3 1.9-10.2 13.5-34.2 18.4q-2.4 0.5-4.8 0.9c-22.9 4.2-41.8 3.9-49.9 3.9h-0.1c-8 0-26.7 0.3-49.3-3.7q-2.6-0.5-5.4-1.1c-23.9-4.9-32.8-16.5-34.2-18.3q-0.1-0.2-0.1-0.3c0.4 0.2 15.7 6.6 25.8 6.2 0.9 0.2 2.1 0.4 3.8 0.4 4 0 10.4-1.1 20.8-4.6 12.9-4.3 27.5-10.9 38.6-17.4q0.1 0 0.1 0 0 0 0.1 0c11.1 6.5 25.7 13.1 38.6 17.4 10.4 3.5 16.9 4.6 20.9 4.6 1.6 0 2.8-0.2 3.7-0.4 10.1 0.4 25.3-6 25.7-6.2z"/><path class="c" d="m632.5 137.3v-1.1c0 0 9.5 0 23.1-4 2.6-0.7 2.8-0.3 1.2 1.6-1.7 2-5.6 5.8-10.9 11.6h-3.9-5.4-4.1z"/><path class="b" d="m632.5 136.2v1.1 8.1h4.1 4.4c3.2-3.8 6.2-7.6 8.9-11.7-10.5 2.5-17.4 2.5-17.4 2.5z"/><path class="c" d="m645.9 55.1c1.8-1.3 0.8 1-1.2 4.3-2 3.2-5.1 7.2-7.6 9.8h-4-5.4-4v-0.2-1.3-4.8-1.9h0.4c13 0 18.1-3.4 21.8-5.9z"/><path class="b" d="m624.1 61h-0.4v1.9 4.8 1.3 0.2h4 4.1c3.1-3.3 5.8-6.8 8.1-10.7-3.5 1.4-8.4 2.5-15.8 2.5z"/><path class="d" d="m642 145.4v40h-5.4v-40z"/><path class="c" d="m636.6 145.4v40h-24.4v-40h1.5c3.1-3.3 5.4-5.7 6.9-7.2 0.2 0 7.3-0.4 11.9-0.9v8.1z"/><path class="c" d="m635 98.7v14h-61.5-0.1-61.5v-14l2.5-1.9h5.4 11.4 4.3 37.9 0.1 38.6 4.2 11.4 5.4z"/><path class="d" d="m633.1 69.2v27.6h-5.4v-25.8-1.8z"/><path class="c" d="m627.7 69.2v1.8q-3.8 2-8.1 3.9l-9.7 1.5c-32.8 3.2-72.2 0.1-72.2 0.1l-9.5-1.2q-4.4-1.9-8.3-4v-2.1h4v-0.2l13.8 4.6c0 0 34.5 4 72.2 0l13.8-4.6v0.2z"/><path class="d" d="m623.7 62.9v4.8c-3.6 4.6-13.8 5.9-13.8 5.9-37.7 4-72.2 0-72.2 0 0 0-10.5-1.5-13.9-5.9v-4.8c0 0 43.9 8.5 99.9 0z"/><path class="h" d="m623.7 67.7v1.3c-0.8 1.5-2.5 3.9-4.1 5.9q-0.8 0.9-1.5 1.6h-1.8-4.2-2.2v-0.1-2.8-2.1h0.2c8 0 11.2-2.1 13.4-3.7q0.1 0 0.2-0.1z"/><path class="b" d="m623.7 67.7v1.3c-0.4 0.7-1.1 1.8-1.9 2.9-0.6 1-1.4 2-2.2 3q-0.8 0.9-1.5 1.6h-1.8-4.2-2.2v-0.1-2.8-2.1h0.2c8 0 11.2-2.1 13.4-3.7q0.1 0 0.2-0.1z"/><path class="c" d="m620.6 138.2c-1.5 1.5-3.8 3.9-6.9 7.2h-1.5-5.4-2.6v-6.5c0 0 6.8 0 16.4-2.8q0.8-0.2 1.1-0.3c0.9 0 0.5 0.7-1.1 2.4z"/><path class="d" d="m616.3 76.5v20.3h-4.2v-20.3z"/><path class="d" d="m606.8 160.1v-14.7h5.4v40h-5.4v-10.6z"/><path class="c" d="m606.8 145.4v29.4c-4.8-13.6-17.7-23.4-33-23.4q0 0 0 0c-15.4 0-28.4 9.9-33.1 23.6v-29.6h2.6v-6.5c0 0 22 1.5 60.9 0v6.5z"/><path class="c" d="m526.9 138.2c-1.6-1.8-2.1-2.5-1-2.4q0.3 0.1 1 0.3c9.6 2.8 16.4 2.8 16.4 2.8v6.5h-2.6-5.4-1.5c-3.1-3.3-5.4-5.7-6.9-7.2z"/><path class="b" d="m604.2 138.9v6.5h2.6 4.1c2.4-2.7 4.6-5.5 6.6-8.5-8 2-13.3 2-13.3 2z"/><path class="b" d="m540.7 145.4h2.6v-6.5c0 0-5.3 0-13.3-2 2.1 3 4.3 5.8 6.5 8.5z"/><path class="d" d="m540.7 175v10.4h-5.4v-40h5.4v14.8z"/><path class="h" d="m537.7 73.6v2.9h-0.5-1.7-4.3-1.8q-0.6-0.5-1.2-1.2c-1.7-2.1-3.5-4.7-4.4-6.3v-1.3q0.1 0.1 0.2 0.1c2.2 1.6 5.4 3.7 13.4 3.7h0.3z"/><path class="b" d="m537.7 73.6v2.9h-0.5-1.7-4.3-1.8q-0.6-0.5-1.2-1.2c-1.7-2.1-3.5-4.7-4.4-6.3v-1.3q0.1 0.1 0.2 0.1c2.2 1.6 5.4 3.7 13.4 3.7h0.3z"/><path class="d" d="m535.5 76.5v20.3h-4.3v-20.3z"/><path class="c" d="m535.3 145.4v40h-24.3v-40h4.1v-8.1c4.3 0.5 10.8 0.8 11.8 0.9 1.5 1.5 3.8 3.9 6.9 7.2z"/><path class="a" d="m683.4 120.6c-0.9 0.5-21.2 10.4-42.3 12.2-6.8 0.6-13.1 1.1-19.5 1.6-13.9 1.1-28.1 1.8-47.8 1.8h-0.4c-19.5 0-33.6-0.7-47.4-1.8-6.5-0.5-13-1-19.9-1.6-21.1-1.8-41.4-11.7-42.4-12.2 0.7 0.4 11.7 7.6 27.3 13.4-1.8-2.1-1.7-2.5 1-1.8 13.6 4 23.1 4 23.1 4v1.1c4.3 0.5 10.8 0.8 11.8 0.9-1.6-1.8-2.1-2.5-1-2.4q0.3 0.1 1 0.3c9.6 2.8 16.4 2.8 16.4 2.8 0 0 22 1.5 60.9 0 0 0 6.8 0 16.4-2.8q0.8-0.2 1.1-0.3c0.9 0 0.5 0.7-1.1 2.4 0.2 0 7.3-0.4 11.9-0.9v-1.1c0 0 9.5 0 23.1-4 2.6-0.7 2.8-0.3 1.2 1.6 15.2-5.8 26-12.8 26.6-13.2z"/><path class="c" d="m523.8 69v0.2h-4-5.4-4c-2.2-2.3-4.9-5.8-6.8-8.7-2.6-3.9-4-6.9-1.9-5.4 3.6 2.5 8.7 5.9 21.8 5.9h0.3v1.9 4.8z"/><path class="b" d="m523.8 69.2v-0.2-1.3-4.8-1.9h-0.3c-7.6 0-12.5-1.1-16-2.5 2.3 3.8 4.8 7.4 7.7 10.7h4.6z"/><path class="d" d="m519.8 71.3v25.5h-5.4v-27.6h5.4z"/><path class="c" d="m515.1 137.3v8.1h-4.1-5.4-3.9c-5.1-5.6-8.9-9.3-10.7-11.4-1.8-2.1-1.7-2.5 1-1.8 13.6 4 23.1 4 23.1 4z"/><path class="b" d="m515.1 145.4v-8.1-1.1c0 0-7.3 0-18.2-2.7 2.9 4.2 6.3 8.2 9.9 11.9h4.2z"/><path class="d" d="m511 145.4v40h-5.4v-40z"/><path class="d" d="m573.8 151c-14.8 0.1-28 9.2-33.1 23v1.9c4.9-14.6 18.3-24.1 33.1-24.2 14.7 0.1 27.8 9.3 33 23.7v-1.6c-5.2-13.6-18.3-22.7-33-22.8z"/><path class="d" d="m573.8 147.4c-13.6 0-25.9 6.9-33.1 18.4v1.3c7-11.9 19.5-19 33.1-19 13.5 0 26 7.1 33 18.6v-1c-7.2-11.5-19.5-18.3-33-18.3z"/><path class="d" d="m599.9 163.4l-0.4-0.5 2.7-2.4 0.4 0.5z"/><path class="d" d="m604.6 170.4l0.4 0.6 1.8-1v-0.8z"/><path class="d" d="m593.7 157.6l-0.6-0.4 2-3 0.6 0.4z"/><path class="d" d="m585.4 153.4l-0.7-0.2 1.4-3.4 0.7 0.3z"/><path class="d" d="m577.3 151.4l-0.7-0.1 0.3-3.6 0.7 0.1z"/><path class="d" d="m567.8 152l-0.7-3.6 0.7-0.1 0.7 3.6z"/><path class="d" d="m559.4 154.6l-1.4-3.3 0.7-0.3 1.3 3.4z"/><path class="d" d="m552.1 159.1l-2.4-2.8 0.5-0.4 2.4 2.7z"/><path class="d" d="m545.6 165.4l-2.8-2.4 0.5-0.5 2.7 2.3z"/><path class="d" d="m540.7 171.8v0.8l0.7 0.3 0.3-0.6z"/><path class="d" d="m605.3 164.1l0.4 0.5 1.1-0.9v-1z"/><path class="d" d="m599.7 157.6l-0.5-0.5 2.2-2.8 0.6 0.4z"/><path class="d" d="m591.3 152.2l-0.6-0.3 1.8-3.2 0.6 0.4z"/><path class="d" d="m582.4 148.7l-0.7-0.1 0.6-3.6 0.7 0.1z"/><path class="d" d="m572.5 147.7h-0.7v-3.6h0.7z"/><path class="d" d="m562.4 149.5l-0.8-3.5 0.7-0.1 0.8 3.5z"/><path class="d" d="m554 153.4l-1.8-3.2 0.6-0.3 1.8 3.1z"/><path class="d" d="m546.3 159.4l-2.5-2.6 0.5-0.5 2.5 2.6z"/><path class="d" d="m573.8 143.8c-12.9 0-25 5.8-33.1 15.8v1.1c8.1-10.3 20.2-16.2 33.1-16.2 12.8 0 25 6 33 16v-1c-8.1-10-20.1-15.7-33-15.7z"/><path class="b" d="m541.4 220.4h-40.9v-35h47.1v29.3z"/><path class="b" d="m601.1 220.4h40.9v-35h-47.1l2.3 27.2z"/><path class="a" d="m555.4 180.4c0 1.2-0.8 2.3-2 2.6l-0.5 0.1q-0.3 0.1-0.7 0.1h-1.7q-0.4 0-0.7-0.1l-0.5-0.1c-1.2-0.3-2-1.4-2-2.6 0-0.9 0.4-1.8 1.2-2.3l1.3-0.9c0.9-0.6 2.2-0.6 3.1 0l1.3 0.9c0.7 0.5 1.2 1.4 1.2 2.3z"/><path class="b" d="m555.1 205.3h-8v-22.1h8z"/><path class="c" d="m555.1 185.4l-12.8 13.9h-8l13-13.9z"/><path class="b" d="m555.1 185.4v19.9l-12.8 22.8v-28.8z"/><path class="a" d="m542.6 196.5c0 1.2-0.8 2.3-2 2.6l-0.5 0.1q-0.3 0.1-0.7 0.1h-1.7q-0.4 0-0.8-0.1l-0.4-0.1c-1.2-0.3-2-1.4-2-2.6 0-0.9 0.4-1.8 1.2-2.3l1.3-0.9c0.9-0.6 2.1-0.6 3.1 0l1.3 0.9c0.7 0.5 1.2 1.3 1.2 2.3z"/><path class="c" d="m542.3 228.1h-8v-28.8h8z"/><path class="a" d="m591.8 180.4c0 1.2 0.8 2.3 2 2.6l0.4 0.1q0.4 0.1 0.8 0.1h1.7q0.4 0 0.7-0.1l0.5-0.1c1.1-0.3 2-1.4 2-2.6 0-0.9-0.5-1.8-1.2-2.3l-1.4-0.9c-0.9-0.6-2.1-0.6-3 0l-1.3 0.9c-0.8 0.5-1.2 1.4-1.2 2.3z"/><path class="b" d="m592.1 205.3h7.9v-22.1h-7.9z"/><path class="c" d="m592.1 185.4l12.8 13.9h7.9l-12.9-13.9z"/><path class="b" d="m592.1 185.4v19.9l12.8 22.8v-28.8z"/><path class="a" d="m604.6 196.5c0 1.2 0.8 2.3 2 2.6l0.4 0.1q0.4 0.1 0.8 0.1h1.7q0.4 0 0.7-0.1l0.5-0.1c1.2-0.3 2-1.4 2-2.6 0-0.9-0.5-1.8-1.2-2.3l-1.3-0.9c-1-0.6-2.2-0.6-3.1 0l-1.3 0.9c-0.8 0.5-1.2 1.3-1.2 2.3z"/><path class="c" d="m604.9 228.1h7.9v-28.8h-7.9z"/><path class="b" d="m640 43.8c-0.2 0.3-0.4 0.6-0.7 0.9q-0.2 0.2-0.5 0.4-0.1 0.1-0.2 0.2c-0.5 0.3-1 0.6-1.8 0.8-0.9 0.2-2.1 0.4-3.7 0.4-4 0-10.5-1.1-20.9-4.5-12.8-4.4-27.5-11-38.6-17.5 1.6 0 4.9-2.1 5.1-2.3 10.3 5.7 23.1 11.5 34.5 15.3q3.3 1.1 6 1.9c3.1 0.9 5.6 1.5 7.7 1.9q1.9 0.3 3.4 0.5 0.8 0.1 1.5 0.2c1.7 0.1 2.8 0 3.5-0.2 0.5-0.1 0.7-0.2 0.8-0.4 0.4-0.5 0.3-0.9 0.2-1.1-0.1-0.5-0.7-1-1.5-1.3-1.1-0.4-1.7-1.7-1.3-2.9q0.1-0.2 0.2-0.3 0-0.2 0.1-0.3 0.1 0 0.1 0 0.1-0.1 0.2-0.2c0-0.1 0.1-0.1 0.2-0.2 0-0.1 0.1-0.1 0.2-0.2q0.2 0 0.3-0.1c0.5-0.2 1.1-0.2 1.6 0 2.1 0.7 3.6 2.2 4.2 4.1 0.6 1.6 0.3 3.4-0.6 4.9z"/><path class="b" d="m506.4 38.9c0.6-1.9 2.1-3.4 4.2-4.1 0.5-0.2 1.1-0.2 1.6 0q0.2 0.1 0.3 0.1c0.1 0.1 0.2 0.1 0.3 0.2 0 0.1 0.1 0.1 0.2 0.2q0.1 0.1 0.2 0.2 0 0 0 0 0.1 0.1 0.1 0.3c0.1 0.1 0.2 0.2 0.2 0.3 0.5 1.2-0.1 2.5-1.3 2.9-0.8 0.3-1.3 0.8-1.5 1.3-0.1 0.2-0.1 0.6 0.2 1.1 0.1 0.2 0.4 0.3 0.8 0.4 0.7 0.2 1.8 0.3 3.5 0.2q0.7-0.1 1.5-0.2 1.5-0.2 3.4-0.5c2.1-0.4 4.6-1 7.7-1.9q2.7-0.8 6-1.9c11.4-3.8 24.3-9.6 34.6-15.3 0 0 2.6-1.1 2.8-1 0.2 0.2 2.7 2 2.2 3.3-11.1 6.5-25.7 13.1-38.6 17.5-10.4 3.4-16.8 4.5-20.8 4.5-1.7 0-2.9-0.2-3.8-0.4-0.7-0.2-1.3-0.5-1.7-0.8q-0.2-0.1-0.3-0.2-0.3-0.2-0.5-0.4c-0.3-0.3-0.5-0.6-0.7-0.9-0.9-1.5-1.2-3.3-0.6-4.9z"/><path class="a" d="m628.2 58.5q-2.4 0.5-4.8 0.9c-22.9 4.2-41.8 3.9-49.9 3.9h-0.1c-8 0-26.7 0.3-49.3-3.7q-2.6-0.5-5.4-1.1c-23.9-4.9-32.8-16.5-34.2-18.3 1.1 1.6 7.5 10.9 19.1 20.3-2.6-3.9 20.2 2.4 20.2 2.4 0 0 43.9 8.5 99.9 0 0 0 23-6.8 21-3.5 10.7-9.1 16.7-17.7 17.7-19.3-1.3 1.9-10.2 13.5-34.2 18.4z"/><path class="b" d="m578.6 22.2c-0.8 1.3-2.8 2.3-5 2.3q-0.1 0-0.1 0 0 0-0.1 0c-2.2-0.1-4.1-1-5-2.3q-0.5-0.8-0.5-1.7c0-2.1 2.5-3.9 5.6-3.9 3.1 0 5.6 1.8 5.6 3.9q0 0.9-0.5 1.7z"/><path class="b" d="m577.5 13.9c0 1.9-1.8 2.7-4 2.7-2.2 0-4-0.8-4-2.7 0-1.9 2.2-4.3 4-4.3 1.6 0 4 2.4 4 4.3z"/><path class="b" d="m576.2 6.8c0 1.6-1.3 2.8-2.8 2.8-1.5 0-2.7-1.2-2.7-2.8 0-1.5 2.7-6.4 2.7-6.4 0 0 2.8 4.9 2.8 6.4z"/><path class="b" d="m683.5 120.6c-4.2 2.1-8.5 3.9-12.8 5.6q-6.6 2.5-13.4 4.3c-4.5 1.2-9.1 2.2-13.8 2.7-4.7 0.5-9.3 0.9-13.9 1.4q-14 1.3-28 2c-9.3 0.5-18.7 0.6-28 0.7-9.4-0.1-18.7-0.2-28-0.7q-14-0.7-28-2c-4.6-0.5-9.3-0.9-13.9-1.4-4.7-0.5-9.3-1.5-13.8-2.7q-6.8-1.8-13.4-4.3c-4.4-1.7-8.7-3.5-12.8-5.6 8.5 3.8 17.4 6.8 26.4 8.9 4.5 1.1 9.1 1.9 13.7 2.4 4.6 0.4 9.3 0.7 13.9 1.1 9.4 0.6 18.6 1.3 27.9 1.6q14 0.6 28 0.5 14 0.1 27.9-0.5c9.3-0.3 18.6-1 27.9-1.6 4.7-0.4 9.3-0.7 14-1.1 4.6-0.5 9.1-1.3 13.7-2.4 9-2.1 17.9-5.1 26.4-8.9z"/><path class="b" d="m662.5 39.9c-2.2 3.3-5.2 6-8.4 8.4-3.2 2.3-6.7 4.3-10.3 5.9-3.6 1.7-7.4 3-11.3 4-3.8 1-7.7 1.8-11.6 2.5-7.8 1.4-15.7 2.4-23.7 3-7.9 0.5-15.8 0.7-23.7 0.7-8 0-15.9-0.2-23.8-0.7-7.9-0.6-15.9-1.6-23.7-3-3.9-0.7-7.8-1.5-11.6-2.5-3.9-1-7.7-2.3-11.3-4-3.6-1.6-7.1-3.6-10.3-5.9-3.2-2.4-6.2-5.1-8.4-8.4 1.1 1.6 2.5 3 4 4.3q2.2 2 4.7 3.6c3.3 2.2 6.8 4 10.4 5.5 3.6 1.5 7.4 2.7 11.2 3.6 3.8 0.9 7.7 1.6 11.6 2.2 15.6 2.5 31.4 3.3 47.2 3.1 15.8 0.2 31.5-0.6 47.1-3.1 3.9-0.6 7.8-1.3 11.6-2.2q5.7-1.4 11.2-3.6c3.6-1.5 7.1-3.3 10.4-5.5q2.5-1.6 4.7-3.6c1.5-1.3 2.9-2.7 4-4.3z"/></svg>